<?xml version="1.0" encoding="UTF-8" standalone="no"?>
<?xml-stylesheet type="text/css" href="../../css/svg-styles.css" ?>
<!-- <svg viewBox="0 0 444 1016" version="1.1" xmlns="http://www.w3.org/2000/svg" xmlns:xlink="http://www.w3.org/1999/xlink">
 --><svg  viewBox="0 0 674 718" version="1.1" xmlns="http://www.w3.org/2000/svg" xmlns:xlink="http://www.w3.org/1999/xlink" xmlns:sketch="http://www.bohemiancoding.com/sketch/ns">
    <!-- Generator: Sketch 3.4 (15588) - http://www.bohemiancoding.com/sketch -->
    <title>Line</title>
    <desc>Created with Sketch.</desc>
    <defs></defs>
    <g id="Page-1" stroke="none" stroke-width="1" fill="none" fill-rule="evenodd" sketch:type="MSPage">
        <path d="M193.91451,472.357061 C193.971173,471.578767 194,470.79275 194,470 C194,467.836555 193.785307,465.723255 193.376065,463.680242 L307.195492,439.80204 C308.288033,446.161272 313.828944,451 320.5,451 C327.955844,451 334,444.955844 334,437.5 C334,430.044156 327.955844,424 320.5,424 C313.044156,424 307,430.044156 307,437.5 C307,437.941319 307.021176,438.377691 307.062568,438.808157 L193.164264,462.702906 C191.593216,455.966949 187.89464,450.048526 182.815501,445.694605 L227.048183,387.454907 C229.647982,389.068364 232.715194,390 236,390 C245.388841,390 253,382.388841 253,373 C253,363.611159 245.388841,356 236,356 C226.611159,356 219,363.611159 219,373 C219,378.744948 221.849699,383.824313 226.212657,386.901653 L182.045509,445.055065 C177.554915,441.441861 172.068265,439.016338 166.062495,438.25543 L233.867653,165.202226 C235.37411,165.545145 236.920995,165.781766 238.5,165.903784 L238.5,196.012283 C238.334361,196.004126 238.167662,196 238,196 C232.477153,196 228,200.477153 228,206 C228,211.522847 232.477153,216 238,216 C243.522847,216 248,211.522847 248,206 C248,200.986963 244.311263,196.835476 239.5,196.11175 L239.5,165.965466 C239.997123,165.988404 240.497207,166 241,166 C250.092869,166 258.299947,162.207482 264.125715,156.117967 L312.437906,201.545848 C309.681159,204.567529 308,208.587437 308,213 C308,222.388841 315.611159,230 325,230 C334.388841,230 342,222.388841 342,213 C342,203.611159 334.388841,196 325,196 C320.383461,196 316.196718,197.840178 313.133264,200.827044 L264.805712,155.384719 C269.900205,149.717206 273,142.220601 273,134 C273,132.447084 272.889383,130.920004 272.675599,129.42621 L383.042627,116.213256 C383.664748,125.035864 391.019093,132 400,132 C409.388841,132 417,124.388841 417,115 C417,105.611159 409.388841,98 400,98 C390.611159,98 383,105.611159 383,115 C383,115.070456 383.000429,115.140812 383.001283,115.211065 L272.518319,128.437899 C271.494696,122.597306 268.887257,117.301784 265.155082,113.010411 L322.802678,30.7917085 C325.793541,33.4119069 329.711311,35 334,35 C343.388841,35 351,27.3888407 351,18 C351,8.61115925 343.388841,1 334,1 C324.611159,1 317,8.61115925 317,18 C317,22.7370594 318.937513,27.0215884 322.063302,30.1043521 L264.469222,112.246729 C258.624855,105.944309 250.273049,102 241,102 C238.248048,102 235.577231,102.347382 233.029008,103.000688 L209.847743,48.1383613 C212.893456,46.6958336 215,43.5939217 215,40 C215,35.0294373 210.970563,31 206,31 C201.029437,31 197,35.0294373 197,40 C197,44.9705627 201.029437,49 206,49 C207.022594,49 208.005354,48.8294548 208.921391,48.5152559 L232.055819,103.266736 C227.044171,104.722757 222.539959,107.371396 218.870789,110.885047 L167.401825,48.4472876 C171.415943,45.3377284 174,40.4706337 174,35 C174,25.6111593 166.388841,18 157,18 C147.611159,18 140,25.6111593 140,35 C140,44.3888407 147.611159,52 157,52 C160.558677,52 163.861963,50.906537 166.5922,49.0372672 L218.156525,111.590711 C212.698636,117.153682 209.256786,124.701626 209.013781,133.051737 L34.8943508,123.616694 C34.6131107,121.793541 33.7847224,120.150965 32.5821936,118.861976 L79.5201055,77.057898 C81.556834,78.2905336 83.9455646,79 86.5,79 C93.9558441,79 100,72.9558441 100,65.5 C100,58.0441559 93.9558441,52 86.5,52 C79.0441559,52 73,58.0441559 73,65.5 C73,70.0305519 75.2317432,74.0398522 78.6558476,76.4885187 L31.8583556,118.167535 C30.2840136,116.816394 28.2373463,116 26,116 C25.8845433,116 25.7695945,116.002174 25.6551921,116.006483 L15.1762568,86.534478 C19.7028533,85.1715397 23,80.9708148 23,76 C23,69.9248678 18.0751322,65 12,65 C5.92486775,65 1,69.9248678 1,76 C1,82.0751322 5.92486775,87 12,87 C12.7541531,87 13.4905805,86.9241069 14.2020613,86.7795415 L24.6284783,116.103839 C20.3088678,116.764315 17,120.495744 17,125 C17,129.028472 19.646756,132.43876 23.2961786,133.586777 L10.43934,209.013563 C10.2940488,209.004566 10.1475576,209 10,209 C6.13400675,209 3,212.134007 3,216 C3,219.865993 6.13400675,223 10,223 C13.8659932,223 17,219.865993 17,216 C17,212.624462 14.6107379,209.806966 11.4311181,209.146416 L24.2685299,133.8336 C24.8288419,133.942792 25.4077401,134 26,134 C30.9705627,134 35,129.970563 35,125 C35,124.873864 34.9974052,124.748335 34.992266,124.623462 L209.000042,134.05246 C209.009261,139.797787 210.532569,145.188061 213.19229,149.845604 L160.660321,191.583332 C158.253614,189.359094 155.035524,188 151.5,188 C144.044156,188 138,194.044156 138,201.5 C138,208.955844 144.044156,215 151.5,215 C158.955844,215 165,208.955844 165,201.5 C165,197.941864 163.623465,194.705234 161.373884,192.2936 L213.706632,150.714157 C217.969558,157.660463 224.809909,162.854557 232.896201,164.964957 L165.0597,438.144382 C164.052673,438.048856 163.032042,438 162,438 C159.325894,438 156.728397,438.328007 154.24555,438.945982 L126.820697,321.767066 C134.867107,320.423382 141,313.427898 141,305 C141,295.611159 133.388841,288 124,288 C114.611159,288 107,295.611159 107,305 C107,314.388841 114.611159,322 124,322 C124.616728,322 125.225785,321.967159 125.825519,321.903131 L153.278651,439.202878 C147.255963,440.905051 141.954787,444.326306 137.938637,448.903131 L45.1329921,397.750414 C46.9471011,394.940653 48,391.593285 48,388 C48,378.058875 39.9411255,370 30,370 C20.0588745,370 12,378.058875 12,388 C12,397.941125 20.0588745,406 30,406 C35.987582,406 41.2923391,403.076479 44.5646904,398.579018 L137.277816,449.68074 C132.730473,455.207022 130,462.284643 130,470 C130,471.793936 130.147618,473.553394 130.43137,475.266889 L29.435796,486.856545 C28.1606962,483.436106 24.8648397,481 21,481 C16.0294373,481 12,485.029437 12,490 C12,494.970563 16.0294373,499 21,499 C25.9705627,499 30,494.970563 30,490 C30,489.251339 29.908588,488.524029 29.7363166,487.828622 L130.610614,476.252883 C132.104288,483.79341 136.247262,490.380861 142.029021,495.00472 L80.1595483,559.718767 C76.874137,556.199901 72.1939757,554 67,554 C57.0588745,554 49,562.058875 49,572 C49,581.941125 57.0588745,590 67,590 C76.9411255,590 85,581.941125 85,572 C85,567.613715 83.4310941,563.593868 80.8238428,560.47102 L142.823959,495.620323 C146.034223,498.026966 149.711675,499.844341 153.695831,500.911965 L116.283708,670.116794 C115.700072,670.039755 115.104678,670 114.5,670 C114.402189,670 114.30462,670.00104 114.207305,670.00311 L107.367376,622.883602 C111.134231,622.23486 114,618.952098 114,615 C114,610.581722 110.418278,607 106,607 C101.581722,607 98,610.581722 98,615 C98,619.418278 101.581722,623 106,623 C106.124874,623 106.249079,622.997139 106.372555,622.991479 L113.205268,670.061283 C108.337807,670.52443 104.223848,673.572083 102.251099,677.816533 L76.9964855,665.189226 C76.9988216,665.12644 77,665.063357 77,665 C77,662.238576 74.7614237,660 72,660 C69.2385763,660 67,662.238576 67,665 C67,667.761424 69.2385763,670 72,670 C74.3360997,670 76.2980098,668.397904 76.8469504,666.232492 L101.862924,678.740479 C101.314302,680.196414 101.010072,681.77215 101.000246,683.417676 L60.9983412,679.846077 C60.9164712,676.051162 57.8145542,673 54,673 C50.1340068,673 47,676.134007 47,680 C47,683.865993 50.1340068,687 54,687 C57.5797595,687 60.5319109,684.31289 60.9494353,680.845689 L101.031153,684.424413 C101.506197,691.449094 107.354857,697 114.5,697 C116.964177,697 119.274152,696.339784 121.262687,695.186592 L132.116066,710.923992 C132.040058,711.270567 132,711.630606 132,712 C132,714.761424 134.238576,717 137,717 C139.761424,717 142,714.761424 142,712 C142,709.238576 139.761424,707 137,707 C135.043713,707 133.349833,708.123494 132.528382,709.760458 L122.109276,694.652755 C125.407663,692.397993 127.654671,688.718149 127.963524,684.5 L162.459629,684.5 C163.466051,687.13137 166.014805,689 169,689 C172.865993,689 176,685.865993 176,682 C176,678.134007 172.865993,675 169,675 C165.134007,675 162,678.134007 162,682 C162,682.514875 162.055588,683.016766 162.16109,683.5 L128,683.5 C128,679.927656 126.61245,676.679392 124.346895,674.264751 L158.55066,633.220233 C159.59508,633.720086 160.764851,634 162,634 C166.418278,634 170,630.418278 170,626 C170,621.581722 166.418278,618 162,618 C157.581722,618 154,621.581722 154,626 C154,628.819743 155.458831,631.298758 157.662919,632.723472 L123.633577,673.558682 C121.877877,671.94479 119.693491,670.789987 117.270755,670.28461 L154.666102,501.155657 C157.021199,501.707896 159.476487,502 162,502 C169.010535,502 175.49453,499.745615 180.766587,495.922243 L236.326287,548.595725 C233.665444,551.061468 232,554.586241 232,558.5 C232,565.955844 238.044156,572 245.5,572 C252.955844,572 259,565.955844 259,558.5 C259,551.044156 252.955844,545 245.5,545 C242.31933,545 239.395571,546.099966 237.088371,547.940249 L181.578281,495.3138 C188.304005,490.104368 192.897265,482.273876 193.826329,473.354055 L534.074468,489.057815 C534.535632,495.406507 537.113571,501.16805 541.105785,505.639943 L497.918895,550.219958 C496.336654,548.837539 494.266136,548 492,548 C487.029437,548 483,552.029437 483,557 C483,561.970563 487.029437,566 492,566 C496.970563,566 501,561.970563 501,557 C501,554.655389 500.103449,552.520179 498.634476,550.918498 L541.785923,506.375069 C546.882188,511.690617 554.05462,515 562,515 C571.392585,515 579.705003,510.375252 584.784328,503.278682 L649.160469,536.233135 C648.415776,537.833742 648,539.618316 648,541.5 C648,548.403559 653.596441,554 660.5,554 C667.403559,554 673,548.403559 673,541.5 C673,534.596441 667.403559,529 660.5,529 C655.834487,529 651.765964,531.556022 649.618371,535.344129 L585.356487,502.448164 C588.290946,498.02038 590,492.709775 590,487 C590,483.969355 589.518509,481.051168 588.627851,478.317763 L621.646676,467.311488 C623.219197,471.789466 627.484668,475 632.5,475 C638.851275,475 644,469.851275 644,463.5 C644,457.148725 638.851275,452 632.5,452 C626.148725,452 621,457.148725 621,463.5 C621,464.485171 621.12388,465.441407 621.356912,466.353983 L588.300958,477.372634 C585.641535,470.109434 580.059274,464.255157 572.978639,461.234268 L596.734425,393.460409 C598.097497,393.812625 599.526867,394 601,394 C610.388841,394 618,386.388841 618,377 C618,367.611159 610.388841,360 601,360 C591.611159,360 584,367.611159 584,377 C584,384.56506 588.941418,390.97599 595.772647,393.181182 L572.050866,460.858027 C568.931224,459.657842 565.542436,459 562,459 C557.641337,459 553.515283,459.99592 549.836985,461.772614 L524.275328,424.038739 C528.34565,421.138034 531,416.378995 531,411 C531,402.163444 523.836556,395 515,395 C506.163444,395 499,402.163444 499,411 C499,419.836556 506.163444,427 515,427 C518.099167,427 520.992532,426.118858 523.443239,424.593431 L548.937245,462.22744 C543.346924,465.181365 538.87714,469.972172 536.331466,475.796291 L435.992475,451.495442 C435.99748,451.330907 436,451.165748 436,451 C436,442.163444 428.836556,435 420,435 C411.163444,435 404,442.163444 404,451 C404,459.836556 411.163444,467 420,467 C428.327602,467 435.169272,460.63797 435.929758,452.509162 L535.94296,476.731109 C534.688913,479.91065 534,483.374873 534,487 C534,487.352969 534.006531,487.704412 534.019479,488.054215 L193.91451,472.357061 Z" id="Line" stroke="#3CCF80" sketch:type="MSShapeGroup"></path>
    </g>
</svg>