<svg viewBox="0 0 444 1016" version="1.1" xmlns="http://www.w3.org/2000/svg" xmlns:xlink="http://www.w3.org/1999/xlink">
        <g transform="translate(0.803000, 0.000000)" stroke="#576366" fill="transparent">
            <path d="M259.502769,27.6043922 C261.720861,26.9767719 263.861074,26.2240264 266.180551,25.8127923 C270.239625,25.0931294 274.458771,24.7134014 278.762468,24.7134014 C282.592583,24.7134014 286.319945,25.1174821 289.959967,25.6906378 L290.12284,25.6906378 L291.425822,25.8127923 L296.474876,26.3828468 L297.73714,24.9984287 L297.085649,22.1888743 L289.512067,17.9949019 L281.205559,13.1087203 L273.631977,11.7243022 L264.714696,13.8009294 L259.665642,14.4931384 L255.838133,16.6104838 L255.22736,17.3026928 L259.014151,18.6871109 L260.927905,19.4200381 L262.84166,20.1122472 L262.190169,23.6140106 L260.927905,27.0750558 L259.502769,27.6043922 L259.502769,27.6043922 Z" id="path2111" stroke-width="0.542092" ></path>
            <path d="M246.310079,0.526802921 L236.782025,1.25973015 L229.819216,4.02856634 L216.463654,10.3398841 L197.448264,17.9949019 L188.571701,20.8044562 L172.04012,25.3648923 L172.04012,27.0750558 L172.04012,32.6941646 L172.04012,36.8881371 L172.04012,39.6569733 L175.256856,41.0413914 L178.392156,43.8509457 L182.219665,43.8509457 L182.830438,46.6197819 L187.309437,55.6999359 L189.833964,60.6268356 L194.272246,67.5896443 L199.3213,74.5931711 L201.886545,78.0949346 L205.062563,80.8637707 L208.890072,84.3655342 L211.414599,84.3655342 L214.590617,81.596698 L216.504372,79.7643799 L219.68039,76.6697983 L221.553426,73.9009621 L224.770162,72.516544 L226.032426,70.3991987 L226.032426,68.3225715 L229.819216,66.9381534 L234.257498,64.8208081 L241.261025,62.0112537 L247.572343,57.8172812 L253.313606,55.0484451 L256.489624,55.6999359 L259.014151,56.4328631 L261.579396,57.1250722 L264.103923,57.8172812 L268.542205,58.5094903 L269.600878,58.4687721 L271.066732,53.6233088 L274.283468,48.7371273 L280.594786,36.1552098 L282.508541,34.0785827 L286.295331,33.3456555 L290.774331,31.9612374 L293.339576,32.775601 L293.950349,31.9612374 L292.688085,31.3097465 L288.209086,29.1924012 L284.422295,26.3828468 L285.033068,25.6906378 L289.959967,25.6906378 C286.319945,25.1174821 282.592583,24.7134014 278.762468,24.7134014 C274.458771,24.7134014 270.239625,25.0931294 266.180551,25.8127923 C263.861074,26.2240264 261.720861,26.9767719 259.502769,27.6043922 L255.22736,29.1924012 L254.535151,28.9480921 L254.494433,28.9480921 L249.486097,27.0750558 L246.96157,24.2655015 L247.572343,20.1122472 L247.572343,16.6104838 L250.137588,14.4931384 L252.051342,14.4931384 L255.838133,12.4165113 L257.141115,10.3398841 L257.141115,8.22253882 L253.924379,4.02856634 L246.310079,0.526802921 L246.310079,0.526802921 Z" id="path2109" stroke-width="0.542092" ></path>
            <path d="M348.95498,497.401768 L348.95498,500.894971 L348.320207,502.990882 L347.685446,507.182717 L347.685446,511.374553 L348.320207,514.16911 L350.224528,517.662313 L354.033143,519.059578 L357.206998,517.662313 L357.841759,515.566389 L360.38084,516.265034 L361.650387,516.963667 L362.285148,519.758224 L363.554695,524.648706 L363.554695,526.744617 L364.824242,528.141895 L366.093777,527.44325 L367.363324,522.552781 L373.076247,518.360946 L377.519637,514.867743 L381.328252,510.675907 L383.232573,509.977275 L385.771641,507.881363 L386.406415,505.086806 L384.502107,502.990882 L381.963026,501.593603 L380.693492,500.196325 L374.345782,496.703135 L371.8067,494.607211 L364.189469,493.908578 L355.30269,492.511299 L352.763609,493.209932 L348.95498,497.401768 L348.95498,497.401768 Z" id="path2190" stroke-width="0.722789" ></path>
            <path d="M403.545211,361.167118 L399.736583,368.153511 L396.562741,370.948068 L395.293194,375.139903 L392.119352,379.331739 L392.754125,381.427663 L394.658433,380.729017 L397.832275,378.633106 L404.179985,373.742625 L408.623374,370.249435 L411.162443,366.756232 L412.43199,364.660308 L412.43199,362.564396 L410.527682,361.167118 L407.353827,360.468472 L403.545211,361.167118 L403.545211,361.167118 Z" id="path2192" stroke-width="0.722789" ></path>
            <path d="M86.8007225,371.655365 L92.4955084,373.754925 L100.771188,376.533742 L106.465974,380.02271 L111.54359,380.732848 L117.266429,381.442999 L123.606439,380.02271 L137.576905,373.754925 L153.454975,365.356712 L162.319772,358.378789 L166.780217,350.690715 L168.687835,344.392049 L172.475003,340.903094 L173.120227,336.703988 L176.935448,334.604428 L185.183075,331.825611 L190.905914,327.626505 L192.813532,317.838884 L192.813532,310.18169 L191.523085,305.982584 L188.998297,303.883024 L187.090693,302.493616 L185.183075,301.783478 L182.013064,300.394056 L180.750683,296.905101 L180.750683,291.995844 L183.920681,285.728071 L188.353074,282.918374 L188.998297,280.139544 L189.615467,277.329846 L192.813532,275.230299 L196.6007,272.451482 L198.508318,269.641785 L198.508318,264.05327 L195.98353,260.564302 L191.523085,257.075334 L185.828299,252.876227 L180.750683,249.387272 L178.197842,247.287713 L174.382621,245.898304 L173.76545,245.188166 L169.305005,243.798745 L166.780217,240.98906 L166.780217,239.599638 L164.227376,235.400532 L162.319772,234.721275 L160.440208,234.721275 L154.717369,233.300986 L148.377359,228.422609 L146.469742,227.0332 L140.101679,224.933641 L135.669287,223.544232 L133.144499,222.834094 L130.591672,222.834094 L126.776437,222.834094 L125.514056,226.323062 L122.989268,231.232307 L122.989268,235.400532 L122.989268,237.500092 L121.698821,240.309789 L118.528823,242.409336 L116.004035,242.409336 L112.834037,242.409336 L109.635973,238.920381 L107.728355,237.500092 L103.295963,238.21023 L100.771188,239.599638 L98.2183475,242.409336 L97.573124,243.798745 L93.7859555,245.188166 L92.8040936,245.311663 L91.8783381,258.464742 L90.6159442,269.641785 L88.7083399,278.719268 L88.7083399,285.01792 L89.9707207,290.606435 L92.4955084,296.19495 L98.2183475,306.661841 L98.863571,308.08213 L98.2183475,309.471539 L95.6935598,311.571099 L92.4955084,315.770205 L88.7083399,323.427398 L86.8007225,331.115473 L86.1554989,343.00264 L84.8931051,351.400853 L84.8931051,363.257153 L85.5383286,365.356712 L86.1554989,368.845681 L86.8007225,370.945227 L86.8007225,371.655365 L86.8007225,371.655365 Z" id="path2199" stroke-width="0.542092" ></path>
            <path d="M383.245316,35.5851553 L380.680071,37.7025007 L376.89328,39.0869188 L369.930472,42.5886822 L367.365226,45.3982365 L364.189208,50.9766271 L359.099436,55.8628086 L357.185681,57.9394358 L354.661154,61.4411992 L346.395364,65.6351717 L341.34631,66.3680989 L339.717583,66.0423535 L337.559519,65.6351717 L335.645765,66.3680989 L331.818256,70.5213532 L329.25301,77.52488 L328.642238,83.1032706 L324.814729,83.1032706 L322.290202,86.605034 L319.114184,88.7223794 L316.467502,88.3151976 L315.327393,92.8756337 L313.413639,101.263579 L311.499884,109.651524 L308.323866,120.808305 L308.323866,124.676532 L308.323866,126.427413 L308.323866,133.43094 L308.323866,136.891986 L310.848393,138.276404 L316.589657,138.276404 L328.642238,138.887176 L329.25301,137.624913 L332.469747,135.507567 L335.645765,134.815358 L337.559519,134.815358 L340.694819,131.313595 L350.222873,127.119622 L357.185681,125.735204 L359.099436,120.808305 L363.537717,111.728151 L369.278981,96.4181153 L376.241789,85.1798978 L383.245316,74.7153257 L388.945861,65.6351717 L390.208125,62.1741264 L390.208125,58.672363 L389.597352,55.8628086 L387.072825,45.3982365 L386.421334,38.3947097 L385.769843,36.3180826 L383.245316,35.5851553 L383.245316,35.5851553 Z" id="path2119" stroke-width="0.542092" ></path>
            <path d="M262.216984,609.676786 L261.992572,611.282333 L261.347348,613.381879 L262.637782,615.481439 L267.715411,620.359803 L268.977792,625.238179 L267.070187,630.826694 L264.517347,640.614315 L261.992572,653.211647 L263.900176,661.578978 L267.070187,666.457355 L269.594962,670.656461 L264.517347,669.267053 L261.347348,668.556902 L255.652562,662.968387 L248.667329,654.601055 L242.94449,649.01254 L237.866862,648.302389 L232.789246,650.401949 L227.71163,653.211647 L222.634015,658.800161 L216.911176,660.18957 L209.308772,662.968387 L192.813532,667.167493 L182.658288,669.267053 L169.950215,669.267053 L147.732136,674.145416 L112.834037,683.93305 L94.2067534,689.05842 L95.0483493,689.521565 L96.9559537,690.231703 L100.125965,693.01052 L105.203581,697.209626 L111.54359,702.088003 L117.911653,707.707398 L124.251662,713.295913 L134.406893,721.663284 L150.284977,734.229631 L154.717369,738.42875 L160.440208,743.337994 L169.950215,749.605858 L220.726398,1013.68651 L223.896409,1015.10676 L231.526852,1010.19751 L242.32732,1005.31902 L248.022106,1001.83016 L255.652562,1001.12003 L258.822561,1000.40991 L261.347348,996.241538 L261.992572,994.821288 L265.807794,989.942924 L288.643044,955.022362 L298.798288,935.447146 L302.61351,924.980294 L303.875904,920.781175 L302.61351,909.604197 L298.798288,892.838601 L293.720659,876.073005 L285.473045,853.008795 L284.210652,845.320811 L284.210652,841.121692 L290.550661,826.455721 L298.798288,810.400249 L303.875904,804.101636 L305.783508,802.712136 L312.768741,802.002011 L319.753974,804.101636 L325.476813,803.39138 L334.986834,790.145789 L340.064449,781.747551 L347.049682,771.280568 L348.312076,768.470949 L351.482074,767.081579 L354.034915,763.592585 L355.94252,762.172335 L357.850137,762.172335 L359.112531,761.49296 L362.927753,753.804977 L367.360145,744.727494 L398.16249,727.220892 L399.088245,724.472904 L403.548703,716.784881 L409.888713,706.287109 L414.966328,697.209626 L417.519156,692.331263 L417.519156,690.231703 L406.718702,681.15422 L399.088245,674.855567 L392.131065,666.457355 L390.223461,663.678525 L390.223461,657.379872 L390.223461,639.224906 L388.315844,630.147437 L384.500622,621.069954 L383.238228,614.771288 L378.160612,610.572182 L369.912986,606.403956 L359.757754,600.815441 L352.127298,598.005744 L349.60251,593.127367 L344.524895,587.538852 L340.064449,584.019003 L331.816822,582.629595 L324.186366,585.439293 L314.031135,590.317669 L305.166351,594.516775 L295.628277,596.616335 L285.473045,599.395152 L279.77826,607.083226 L273.410197,609.182773 L262.216984,609.676786 L262.216984,609.676786 Z" id="path2229" stroke-width="0.542092" ></path>
            <path d="M262.216984,609.676786 L273.410197,609.182773 L279.77826,607.083226 L285.473045,599.395152 L295.628277,596.616335 L305.166351,594.516775 L314.031135,590.317669 L324.186366,585.439293 L331.816822,582.629595 L340.064449,584.019003 L344.524895,587.538852 L349.60251,593.127367 L352.127298,598.005744 L359.757754,600.815441 L369.912986,606.403956 L378.160612,610.572182 L383.238228,614.771288 L384.500622,621.069954 L388.315844,630.147437 L390.223461,639.224906 L390.223461,657.379872 L390.223461,663.678525 L392.131065,666.457355 L399.088245,674.855567 L406.718702,681.15422 L417.519156,690.231703 L417.519156,692.331263 L414.966328,697.209626 L409.888713,706.287109 L403.548703,716.784881 L399.088245,724.472904 L398.16249,727.220892 L406.718702,722.373409 L432.752016,708.386669 L440.999643,699.309186 L442.262024,697.919777 L442.262024,695.820218 L441.644854,693.01052 L440.999643,689.521565 L439.092026,683.93305 L434.01441,679.733944 L431.461569,674.145416 L430.199175,668.556902 L430.199175,652.501495 L430.199175,637.835498 L430.844399,630.826694 L432.106793,621.069954 L433.369186,612.671741 L436.567238,602.20485 L437.184408,600.10529 L438.446802,598.005744 L437.184408,595.906184 L432.752016,595.196046 L420.689168,594.516775 L407.981095,592.417229 L399.088245,590.317669 L394.655853,586.118563 L392.131065,577.751231 L390.840631,569.353019 L390.223461,559.565385 L391.485855,552.587462 L392.748236,548.388355 L392.131065,542.799841 L388.315844,537.211326 L385.763003,531.622811 L382.593004,529.554132 L374.990601,529.554132 L369.912986,531.622811 L368.622538,533.722358 L370.530156,536.532055 L371.820603,537.921464 L371.175379,541.410432 L367.360145,544.899387 L361.020135,547.709085 L357.204913,550.487915 L352.772521,552.587462 L347.694906,549.808645 L345.787288,546.319676 L344.524895,542.799841 L346.404459,540.731162 L347.694906,538.631602 L349.60251,533.722358 L349.60251,531.622811 L349.60251,526.034283 L350.21968,521.15592 L347.049682,520.445769 L345.787288,519.05636 L340.709673,521.866058 L336.249214,523.934737 L332.462046,526.034283 L328.646824,528.133843 L324.831589,529.554132 L322.306815,528.133843 L320.455304,527.114937 L317.229199,530.23339 L311.506347,540.021024 L305.166351,551.908191 L300.088722,557.496706 L293.720659,560.275536 L290.550661,561.664944 L286.735439,565.864051 L280.39543,572.162703 L276.580195,574.941534 L270.240186,577.04108 L261.347348,577.751231 L251.192104,579.850778 L245.497318,580.622677 L245.497318,581.950337 L246.114489,583.339746 L249.92971,586.828701 L258.822561,590.317669 L262.637782,591.707078 L263.900176,594.516775 L264.517347,596.616335 L262.637782,606.403956 L262.216984,609.676786 L262.216984,609.676786 Z" id="path2224" stroke-width="0.542092" ></path>
            <path d="M245.497318,580.622677 L251.192104,579.850778 L261.347348,577.751231 L270.240186,577.04108 L276.580195,574.941534 L280.39543,572.162703 L286.735439,565.864051 L290.550661,561.664944 L293.720659,560.275536 L300.088722,557.496706 L305.166351,551.908191 L311.506347,540.021024 L317.229199,530.23339 L320.455304,527.114937 L314.676358,523.934737 L305.783508,519.766498 L299.443498,513.467845 L291.195885,504.390362 L283.565428,493.923471 L277.225419,482.03629 L274.05542,470.149123 L271.50258,458.292823 L270.885409,452.704308 L271.362314,452.704308 L269.594962,451.284019 L268.332568,451.284019 L267.070187,453.383566 L263.900176,455.483125 L261.347348,453.383566 L258.822561,450.604749 L255.007339,447.084913 L251.192104,446.405642 L247.404936,447.084913 L244.206871,445.695504 L241.682096,443.595945 L239.129256,440.106977 L237.221651,435.90787 L234.05164,435.90787 L229.619248,438.00743 L221.371621,443.595945 L215.031612,446.405642 L206.138774,445.695504 L201.678316,443.595945 L198.508318,445.695504 L194.075913,448.505202 L193.430702,448.505202 L194.075913,451.994157 L194.693083,453.383566 L194.693083,457.582672 L193.430702,465.270746 L191.523085,472.958821 L190.260691,475.737638 L193.430702,489.014227 L194.075913,495.99215 L199.153541,507.16918 L204.848327,516.956813 L208.663549,520.445769 L216.294005,524.644875 L222.634015,530.23339 L225.804013,535.821917 L227.71163,537.211326 L226.449237,539.310872 L225.186843,542.799841 L223.896409,546.319676 L222.634015,549.808645 L223.279238,551.908191 L234.696863,567.963597 L244.206871,578.430489 L245.497318,579.14064 L245.497318,580.622677 L245.497318,580.622677 Z" id="path2219" stroke-width="0.542092" ></path>
            <path d="M94.2067534,689.05842 L112.834037,683.93305 L147.732136,674.145416 L169.950215,669.267053 L182.658288,669.267053 L192.813532,667.167493 L209.308772,662.968387 L216.911176,660.18957 L222.634015,658.800161 L227.71163,653.211647 L232.789246,650.401949 L237.866862,648.302389 L242.94449,649.01254 L248.667329,654.601055 L255.652562,662.968387 L261.347348,668.556902 L264.517347,669.267053 L269.594962,670.656461 L267.070187,666.457355 L263.900176,661.578978 L261.992572,653.211647 L264.517347,640.614315 L267.070187,630.826694 L268.977792,625.238179 L267.715411,620.359803 L262.637782,615.481439 L261.347348,613.381879 L261.992572,611.282333 L262.637782,606.403956 L264.517347,596.616335 L263.900176,594.516775 L262.637782,591.707078 L258.822561,590.317669 L249.92971,586.828701 L246.114489,583.339746 L245.497318,581.950337 L245.497318,579.14064 L244.206871,578.430489 L234.696863,567.963597 L223.279238,551.908191 L222.634015,549.808645 L223.896409,546.319676 L225.186843,542.799841 L226.449237,539.310872 L227.71163,537.211326 L225.804013,535.821917 L222.634015,530.23339 L216.294005,524.644875 L208.663549,520.445769 L204.848327,516.956813 L199.153541,507.16918 L194.075913,495.99215 L193.430702,489.014227 L190.260691,475.737638 L191.523085,472.958821 L193.430702,465.270746 L194.693083,457.582672 L194.693083,453.383566 L194.075913,451.994157 L193.430702,448.505202 L188.998297,448.505202 L184.537852,451.284019 L173.120227,451.284019 L168.687835,453.383566 L166.780217,456.872534 L164.227376,462.461049 L159.794984,463.881338 L158.53259,461.781778 L153.454975,461.781778 L148.99453,462.461049 L141.392126,463.881338 L136.931681,463.881338 L131.854065,465.270746 L126.636171,464.220973 L126.776437,465.270746 L126.776437,469.469853 L124.251662,472.958821 L122.344045,478.547335 L117.911653,484.13585 L114.096418,490.403635 L109.018802,493.923471 L104.558357,497.412439 L101.388346,502.290816 L95.6935598,506.489922 L91.2331145,510.689028 L84.8931051,514.177983 L80.460713,518.346222 L79.170266,518.346222 L77.2626486,523.255466 L74.7378739,524.644875 L71.5678626,528.133843 L69.0150348,528.843981 L65.8450235,533.043087 L62.0298018,537.211326 L58.8597905,538.631602 L58.2426202,540.021024 L56.9521862,540.021024 L53.7821749,542.12057 L51.8745576,545.609538 L49.9669532,547.709085 L48.7045593,549.098493 L42.3645499,552.587462 L36.0245404,556.786568 L32.2093187,558.886127 L25.2240857,560.58429 L25.2240857,563.764491 L25.2240857,581.240186 L26.4864796,586.828701 L29.0393075,589.607531 L31.5640952,592.417229 L38.5493282,595.196046 L42.3645499,598.005744 L48.7045593,599.395152 L55.6897923,603.594258 L59.5050141,604.304396 L64.5826297,605.693805 L65.8450235,606.403956 L65.8450235,609.182773 L67.1074174,611.282333 L70.2774286,614.06115 L78.5530956,628.047877 L86.1554989,642.034604 L89.3254972,648.302389 L89.9707207,653.211647 L90.6159442,663.678525 L92.4955084,677.665265 L93.1407319,686.032597 L93.7859555,688.842295 L94.2067534,689.05842 L94.2067534,689.05842 Z" id="path2214" stroke-width="0.542092" ></path>
            <path d="M25.2240857,560.58429 L32.2093187,558.886127 L36.0245404,556.786568 L42.3645499,552.587462 L48.7045593,549.098493 L49.9669532,547.709085 L51.8745576,545.609538 L53.7821749,542.12057 L56.9521862,540.021024 L58.2426202,540.021024 L58.8597905,538.631602 L62.0298018,537.211326 L65.8450235,533.043087 L69.0150348,528.843981 L71.5678626,528.133843 L74.7378739,524.644875 L77.2626486,523.255466 L79.170266,518.346222 L80.460713,518.346222 L84.8931051,514.177983 L91.2331145,510.689028 L95.6935598,506.489922 L101.388346,502.290816 L104.558357,497.412439 L109.018802,493.923471 L114.096418,490.403635 L117.911653,484.13585 L122.344045,478.547335 L124.251662,472.958821 L126.776437,469.469853 L126.776437,465.270746 L126.636171,464.220973 L124.868832,463.881338 L108.373579,463.171187 L102.65074,464.560608 L96.9559537,465.270746 L92.4955084,463.171187 L90.6159442,455.483125 L87.4178928,451.284019 L81.7231069,450.604749 L77.9078721,448.505202 L72.185033,444.306083 L63.9374192,436.618021 L60.7674079,433.839204 L57.5974097,433.129053 L58.8597905,430.319356 L60.1221844,427.540539 L63.9374192,423.341432 L67.7526409,422.662162 L68.3978644,418.463056 L68.3978644,415.653358 L68.3978644,409.385573 L68.3978644,403.08692 L68.3978644,400.740354 L64.5826297,404.476329 L60.1221844,404.476329 L58.8597905,407.286026 L44.2721673,413.553811 L38.5493282,419.142326 L37.2869343,423.341432 L37.2869343,428.929947 L34.7340934,438.717568 L30.3017013,443.595945 L22.6712448,445.695504 L19.5012466,445.695504 L18.2388527,447.084913 L13.1612371,451.284019 L9.99122589,456.872534 L4.9136103,461.781778 L3.00599291,466.660155 L2.36076938,480.646882 L1.74361208,484.815121 L0.453165029,490.403635 L0.453165029,493.923471 L1.74361208,499.511986 L4.26838677,507.879331 L5.53078063,514.857254 L6.17600415,519.05636 L7.43839801,523.934737 L8.72883204,526.034283 L12.5160136,533.722358 L17.5936292,542.799841 L22.0540745,549.808645 L25.2240857,559.565385 L25.2240857,560.58429 L25.2240857,560.58429 Z" id="path2209" stroke-width="0.542092" ></path>
            <path d="M223.896409,441.897782 L223.896409,432.418915 L224.541632,427.540539 L223.896409,424.730841 L220.109227,421.241873 L209.953996,414.26395 L202.968763,407.965297 L197.245924,403.797058 L194.693083,400.277222 L192.813532,392.620029 L191.523085,389.810331 L191.523085,386.321363 L190.260691,384.221816 L187.090693,381.442999 L176.935448,378.633301 L165.517823,377.243893 L155.362592,374.434195 L148.377359,373.044787 L145.824518,372.334636 L144.029127,370.358586 L137.576905,373.754925 L123.606439,380.02271 L117.266429,381.442999 L111.54359,380.732848 L106.465974,380.02271 L100.771188,376.533742 L92.4955084,373.754925 L86.8007225,371.655365 L86.8007225,372.334636 L84.2478816,372.334636 L82.3402772,373.754925 L80.460713,376.533742 L79.8154895,378.633301 L80.460713,380.732848 L81.7231069,382.832408 L82.9854877,383.511665 L82.3402772,386.321363 L77.9078721,391.199739 L70.2774286,398.887814 L68.3978644,400.740354 L68.3978644,403.08692 L68.3978644,409.385573 L68.3978644,415.653358 L68.3978644,418.463056 L67.7526409,422.662162 L63.9374192,423.341432 L60.1221844,427.540539 L58.8597905,430.319356 L57.5974097,433.129053 L60.7674079,433.839204 L63.9374192,436.618021 L72.185033,444.306083 L77.9078721,448.505202 L81.7231069,450.604749 L87.4178928,451.284019 L90.6159442,455.483125 L92.4955084,463.171187 L96.9559537,465.270746 L102.65074,464.560608 L108.373579,463.171187 L124.868832,463.881338 L131.854065,465.270746 L136.931681,463.881338 L141.392126,463.881338 L148.99453,462.461049 L153.454975,461.781778 L158.53259,461.781778 L159.794984,463.881338 L164.227376,462.461049 L166.780217,456.872534 L168.687835,453.383566 L173.120227,451.284019 L184.537852,451.284019 L188.998297,448.505202 L194.075913,448.505202 L198.508318,445.695504 L201.678316,443.595945 L206.138774,445.695504 L215.031612,446.405642 L221.371621,443.595945 L223.896409,441.897782 L223.896409,441.897782 Z" id="path2234" stroke-width="0.542092" ></path>
            <path d="M381.330611,321.35872 L376.252995,321.35872 L369.912986,315.770205 L364.190146,312.250369 L359.757754,306.661841 L354.034915,303.883024 L348.957287,303.172886 L341.326843,300.394056 L336.249214,301.783478 L335.632057,306.661841 L333.079216,310.18169 L326.093983,315.060054 L317.229199,318.549022 L314.031135,320.648581 L311.506347,318.549022 L305.166351,315.770205 L299.443498,313.670645 L295.011106,313.670645 L291.195885,314.349916 L285.473045,319.93843 L277.225419,331.115473 L269.594962,348.591155 L257.560167,370.235089 L252.482551,384.931954 L253.099721,389.810331 L256.26972,392.620029 L265.807794,393.299299 L271.50258,395.398846 L275.317801,398.887814 L277.870642,401.697512 L278.487813,404.476329 L278.487813,407.286026 L273.410197,412.164403 L266.424964,415.653358 L262.637782,415.653358 L258.822561,417.752918 L253.099721,421.241873 L244.206871,426.15113 L241.682096,431.029507 L241.682096,433.129053 L243.589701,435.90787 L244.852095,437.32816 L244.852095,438.717568 L244.852095,441.496398 L243.84218,445.386737 L244.206871,445.695504 L247.404936,447.084913 L251.192104,446.405642 L255.007339,447.084913 L258.822561,450.604749 L261.347348,453.383566 L263.900176,455.483125 L267.070187,453.383566 L268.332568,451.284019 L269.594962,451.284019 L271.362314,452.704308 L273.410197,452.704308 L273.410197,449.184459 L274.700631,446.405642 L278.487813,442.206536 L279.77826,440.106977 L285.473045,433.129053 L289.288267,431.029507 L294.365883,427.540539 L305.783508,421.952024 L307.691125,419.852464 L310.243966,419.142326 L314.676358,412.874541 L316.583976,410.064843 L315.938752,408.675435 L318.49158,405.865737 L323.569209,403.797058 L330.554429,400.98736 L334.34161,400.277222 L335.632057,396.788254 L336.894438,394.688708 L338.156832,391.199739 L341.972067,386.321363 L344.524895,385.611225 L348.312076,385.611225 L349.60251,385.611225 L352.772521,378.633301 L355.297296,373.044787 L360.374925,364.646561 L362.282529,361.157606 L364.190146,357.668638 L367.360145,354.889821 L375.607771,338.124264 L380.068217,327.626505 L381.330611,323.427398 L381.330611,321.35872 L381.330611,321.35872 Z" id="path2239" stroke-width="0.542092" ></path>
            <path d="M381.330611,254.512642 L376.252995,256.365196 L367.360145,260.564302 L362.927753,266.152817 L359.112531,270.351923 L356.55969,268.931634 L351.482074,267.542225 L345.787288,266.152817 L339.447279,263.343119 L332.462046,261.27444 L328.001601,259.854164 L322.923985,259.174893 L317.846356,258.464742 L314.031135,258.464742 L308.336349,254.265636 L305.166351,251.486819 L301.968286,251.486819 L300.705892,253.586379 L298.181118,254.975787 L294.365883,263.343119 L292.458278,273.13074 L290.550661,284.307782 L290.550661,291.316586 L293.720659,298.294509 L295.011106,303.883024 L296.890671,309.471539 L295.011106,310.860947 L293.748713,313.886784 L295.011106,313.670645 L299.443498,313.670645 L305.166351,315.770205 L311.506347,318.549022 L314.031135,320.648581 L317.229199,318.549022 L326.093983,315.060054 L333.079216,310.18169 L335.632057,306.661841 L336.249214,301.783478 L341.326843,300.394056 L348.957287,303.172886 L354.034915,303.883024 L359.757754,306.661841 L364.190146,312.250369 L369.912986,315.770205 L376.252995,321.35872 L381.330611,321.35872 L381.330611,318.549022 L382.593004,313.670645 L386.408226,310.18169 L388.315844,310.860947 L392.131065,304.562295 L395.301077,301.073327 L392.748236,298.97378 L390.840631,297.584371 L386.408226,294.095403 L383.238228,287.796737 L382.593004,282.918374 L381.975834,277.329846 L383.855398,270.351923 L387.05345,265.442678 L385.145845,261.95371 L381.330611,258.464742 L381.330611,254.512642 L381.330611,254.512642 Z" id="path2244" stroke-width="0.542092" ></path>
            <path d="M346.011714,221.75344 C345.965406,221.901759 345.980781,222.143605 345.927554,222.278333 C345.630005,223.031548 345.230212,223.583517 344.83348,223.976496 C344.040016,224.762468 343.234447,224.933641 343.234447,224.933641 L340.064449,228.422609 L340.064449,229.812017 L340.064449,232.621715 L340.064449,234.011124 L341.326843,237.500092 L340.709673,240.98906 L337.539662,245.188166 L333.079216,251.486819 L325.757345,259.545396 L328.001601,259.854164 L332.462046,261.27444 L339.447279,263.343119 L345.787288,266.152817 L351.482074,267.542225 L356.55969,268.931634 L359.112531,270.351923 L362.927753,266.152817 L367.360145,260.564302 L376.252995,256.365196 L381.330611,254.512642 L381.330611,254.265636 L381.330611,250.776681 L382.593004,247.997864 L383.855398,245.898304 L383.238228,242.409336 L380.068217,240.98906 L374.345378,238.920381 L369.267762,237.500092 L363.544923,235.400532 L358.467307,230.522168 L353.389692,224.933641 L346.404459,222.123956 L346.011714,221.75344 L346.011714,221.75344 Z" id="path2249" stroke-width="0.542092" ></path>
            <path d="M292.794917,172.228681 L292.458278,172.537448 L290.550661,173.247587 L285.473045,175.316265 L283.565428,176.736555 L281.04064,181.614918 L278.487813,186.493295 L277.870642,189.302993 L275.317801,189.302993 L272.793027,188.592855 L270.885409,186.493295 L266.424964,183.714478 L262.637782,181.614918 L258.822561,180.22551 L255.652562,180.22551 L249.2845,182.325069 L245.497318,182.325069 L242.32732,182.325069 L239.129256,185.103886 L234.696863,189.302993 L225.186843,193.502099 L218.81878,201.190173 L215.648782,206.778688 L215.648782,210.946914 L215.648782,220.055277 L216.911176,223.544232 L218.81878,226.323062 L220.109227,226.323062 L220.109227,227.712471 L218.81878,228.422609 L216.911176,229.13276 L214.386388,230.522168 L210.571166,234.011124 L205.493551,234.011124 L201.678316,234.011124 L198.508318,232.621715 L196.6007,232.621715 L193.430702,233.300986 L192.813532,233.300986 L193.430702,236.110683 L194.693083,237.500092 L196.6007,238.920381 L197.891147,240.309789 L199.153541,242.409336 L201.061146,245.188166 L204.231157,247.287713 L207.401155,254.265636 L213.741165,264.763408 L216.294005,268.252376 L216.294005,274.551029 L215.648782,281.528952 L215.648782,284.307782 L218.81878,287.796737 L223.896409,293.385265 L230.264471,299.683918 L242.32732,306.661841 L254.362115,312.250369 L264.517347,314.349916 L267.070187,313.670645 L270.885409,313.670645 L270.885409,317.159613 L271.50258,319.25916 L272.793027,322.748128 L274.700631,328.336643 L274.700631,332.535749 L275.682493,334.666176 L277.225419,331.115473 L285.473045,319.93843 L291.195885,314.349916 L293.748713,313.886784 L295.011106,310.860947 L296.890671,309.471539 L295.011106,303.883024 L293.720659,298.294509 L290.550661,291.316586 L290.550661,284.307782 L292.458278,273.13074 L294.365883,263.343119 L298.181118,254.975787 L300.705892,253.586379 L301.968286,251.486819 L304.072276,251.486819 L303.875904,250.776681 L300.705892,243.798745 L296.2735,234.011124 L293.103489,226.323062 L290.550661,223.544232 L290.550661,221.444686 L290.550661,219.345126 L288.643044,216.535428 L288.025873,215.14602 L289.933491,213.046473 L293.103489,208.878235 L295.628277,203.28972 L297.535894,199.769884 L298.798288,193.502099 L297.535894,189.302993 L296.890671,187.913584 L296.890671,185.814025 L296.890671,184.424616 L295.628277,183.714478 L292.458278,183.714478 L290.550661,182.325069 L288.643044,181.614918 L288.643044,180.22551 L289.933491,178.125963 L291.813055,174.636995 L292.794917,172.228681 L292.794917,172.228681 Z" id="path2259" stroke-width="0.542092" ></path>
            <path d="M292.794917,172.228681 L291.813055,174.636995 L289.933491,178.125963 L288.643044,180.22551 L288.643044,181.614918 L290.550661,182.325069 L292.458278,183.714478 L295.628277,183.714478 L296.890671,184.424616 L296.890671,185.814025 L296.890671,187.913584 L297.535894,189.302993 L298.798288,193.502099 L297.535894,199.769884 L295.628277,203.28972 L293.103489,208.878235 L289.933491,213.046473 L288.025873,215.14602 L288.643044,216.535428 L290.550661,219.345126 L290.550661,221.444686 L290.550661,223.544232 L293.103489,226.323062 L296.2735,234.011124 L300.705892,243.798745 L303.875904,250.776681 L304.072276,251.486819 L305.166351,251.486819 L308.336349,254.265636 L314.031135,258.464742 L317.846356,258.464742 L322.923985,259.174893 L325.757345,259.545396 L333.079216,251.486819 L337.539662,245.188166 L340.709673,240.98906 L341.326843,237.500092 L340.064449,234.011124 L340.064449,232.621715 L340.064449,229.812017 L340.064449,228.422609 L343.234447,224.933641 C343.234447,224.933641 344.040016,224.762468 344.83348,223.976496 C345.230212,223.583517 345.630005,223.031548 345.927554,222.278333 C345.980781,222.143605 345.965406,221.901759 346.011714,221.75344 L341.326843,217.245579 L333.72444,208.168097 L328.001601,196.280916 L321.661591,181.614918 L320.399197,173.247587 L321.016368,161.360406 L323.569209,149.473238 L328.646824,138.882837 L316.583976,138.296196 L310.861137,138.296196 L310.356179,138.018322 L310.861137,139.685604 L311.506347,142.495302 L312.151571,146.694408 L311.506347,152.282923 L310.243966,155.061753 L308.953519,157.871451 L303.875904,162.749814 L301.351116,164.139223 L296.2735,169.04848 L292.794917,172.228681 L292.794917,172.228681 Z" id="path2254" stroke-width="0.542092" ></path>
            <path d="M213.96559,265.072163 L206.138774,264.05327 L203.585933,264.05327 L201.061146,266.152817 L198.508318,268.190615 L198.508318,269.641785 L196.6007,272.451482 L192.813532,275.230299 L189.615467,277.329846 L188.998297,280.139544 L188.353074,282.918374 L183.920681,285.728071 L180.750683,291.995844 L180.750683,296.905101 L182.013064,300.394056 L185.183075,301.783478 L187.090693,302.493616 L188.998297,303.883024 L191.523085,305.982584 L192.813532,310.18169 L192.813532,317.838884 L190.905914,327.626505 L185.183075,331.825611 L176.935448,334.604428 L173.120227,336.703988 L172.475003,340.903094 L168.687835,344.392049 L166.780217,350.690715 L162.319772,358.378789 L153.454975,365.356712 L144.029127,370.358586 L145.824518,372.334636 L148.377359,373.044787 L155.362592,374.434195 L165.517823,377.243893 L176.935448,378.633301 L187.090693,381.442999 L190.260691,384.221816 L191.523085,386.321363 L191.523085,389.810331 L192.813532,392.620029 L194.693083,400.277222 L197.245924,403.797058 L202.968763,407.965297 L209.953996,414.26395 L220.109227,421.241873 L223.896409,424.730841 L224.541632,427.540539 L223.896409,432.418915 L223.896409,441.897782 L229.619248,438.00743 L234.05164,435.90787 L237.221651,435.90787 L239.129256,440.106977 L241.682096,443.595945 L243.84218,445.386737 L244.852095,441.496398 L244.852095,438.717568 L244.852095,437.32816 L243.589701,435.90787 L241.682096,433.129053 L241.682096,431.029507 L244.206871,426.15113 L253.099721,421.241873 L258.822561,417.752918 L262.637782,415.653358 L266.424964,415.653358 L273.410197,412.164403 L278.487813,407.286026 L278.487813,404.476329 L277.870642,401.697512 L275.317801,398.887814 L271.50258,395.398846 L265.807794,393.299299 L256.26972,392.620029 L253.099721,389.810331 L252.482551,384.931954 L257.560167,370.235089 L269.594962,348.591155 L275.682493,334.666176 L274.700631,332.535749 L274.700631,328.336643 L272.793027,322.748128 L271.50258,319.25916 L270.885409,317.159613 L270.885409,313.670645 L267.070187,313.670645 L264.517347,314.349916 L254.362115,312.250369 L242.32732,306.661841 L230.264471,299.683918 L223.896409,293.385265 L218.81878,287.796737 L215.648782,284.307782 L215.648782,281.528952 L216.294005,274.551029 L216.294005,268.252376 L213.96559,265.072163 L213.96559,265.072163 Z" id="path2264" stroke-width="0.542092" ></path>
            <path d="M163.273568,235.06091 L164.227376,235.400532 L166.780217,239.599638 L166.780217,240.98906 L169.305005,243.798745 L173.76545,245.188166 L174.382621,245.898304 L178.197842,247.287713 L180.750683,249.387272 L185.828299,252.876227 L191.523085,257.075334 L195.98353,260.564302 L198.508318,264.05327 L198.508318,268.190615 L201.061146,266.152817 L203.585933,264.05327 L206.138774,264.05327 L213.96559,265.072163 L213.741165,264.763408 L207.401155,254.265636 L204.231157,247.287713 L201.061146,245.188166 L199.153541,242.409336 L197.891147,240.309789 L196.6007,238.920381 L194.693083,237.500092 L193.430702,236.110683 L192.813532,233.300986 L193.430702,233.300986 L196.6007,232.621715 L198.508318,232.621715 L201.678316,234.011124 L205.493551,234.011124 L210.571166,234.011124 L214.386388,230.522168 L216.911176,229.13276 L218.81878,228.422609 L220.109227,227.712471 L220.109227,226.323062 L218.81878,226.323062 L216.911176,223.544232 L215.648782,220.055277 L215.648782,210.946914 L215.648782,206.778688 L218.81878,201.190173 L225.186843,193.502099 L234.696863,189.302993 L239.129256,185.103886 L242.32732,182.325069 L242.748118,182.325069 L244.206871,178.836101 L245.497318,176.736555 L245.497318,172.537448 L245.497318,169.04848 L243.589701,166.948921 L241.036873,166.948921 L237.221651,164.139223 L233.43447,163.459966 L228.974024,159.970997 L226.449237,156.451162 L225.186843,156.451162 L226.449237,154.382483 L230.264471,153.672345 L235.959257,150.862647 L238.512085,147.373679 L240.419703,145.98427 L241.036873,143.205453 L242.94449,140.395756 L242.94449,136.906787 L244.206871,133.417819 L242.94449,129.928864 L241.682096,128.508575 L235.959257,129.218713 L232.789246,129.928864 L228.974024,131.318273 L224.541632,134.807241 L221.988791,133.417819 L221.371621,131.318273 L218.201623,128.508575 L210.571166,128.508575 L205.493551,131.318273 L201.678316,134.09709 L199.153541,136.906787 L198.508318,141.105894 L196.6007,141.105894 L194.693083,141.105894 L194.075913,138.296196 L188.998297,136.906787 L183.920681,136.196649 L180.10546,137.616925 L178.197842,139.685604 L175.673055,138.296196 L175.673055,137.616925 L172.475003,136.196649 L171.857833,134.807241 L167.397388,129.218713 L164.8726,127.829305 L162.319772,126.409028 L159.794984,127.119166 L154.072145,130.608135 L153.651347,130.886008 L155.362592,132.028411 L156.624986,132.707681 L157.887367,134.807241 L159.149761,136.196649 L161.057378,141.105894 L162.319772,144.594862 L164.227376,148.793968 L164.8726,152.962194 L165.517823,156.451162 L166.780217,162.039676 L171.857833,169.727751 L175.027844,175.316265 L178.843066,180.22551 L180.10546,183.004327 L180.10546,188.592855 L179.460236,193.502099 L178.197842,194.891507 L173.76545,201.869431 L168.687835,208.168097 L168.042611,213.046473 L165.517823,217.245579 L165.517823,220.734535 L165.517823,225.643792 L164.227376,231.232307 L163.610206,234.011124 L163.273568,235.06091 L163.273568,235.06091 Z" id="path2274" stroke-width="0.542092" ></path>
            <path d="M163.273568,235.06091 L163.610206,234.011124 L164.227376,231.232307 L165.517823,225.643792 L165.517823,220.734535 L165.517823,217.245579 L168.042611,213.046473 L168.687835,208.168097 L173.76545,201.869431 L178.197842,194.891507 L179.460236,193.502099 L180.10546,188.592855 L180.10546,183.004327 L178.843066,180.22551 L175.027844,175.316265 L171.857833,169.727751 L166.780217,162.039676 L165.517823,156.451162 L164.8726,152.962194 L164.227376,148.793968 L162.319772,144.594862 L161.057378,141.105894 L159.149761,136.196649 L157.887367,134.807241 L156.624986,132.707681 L155.362592,132.028411 L153.651347,130.886008 L148.377359,134.09709 L142.009297,134.09709 L135.024064,134.807241 L129.329278,134.09709 L124.868832,132.707681 L119.791217,132.707681 L116.004035,133.417819 L114.713588,136.196649 L110.281196,138.296196 L107.111198,139.006347 L106.465974,141.105894 L105.203581,141.105894 L103.941187,139.685604 L102.033569,140.395756 L100.771188,141.785164 L99.4807414,143.884711 L98.863571,142.495302 L96.3107301,141.105894 L95.6935598,139.006347 L95.4971874,138.851957 L95.0483493,141.785164 L91.8783381,148.793968 L89.3254972,158.550708 L87.4178928,184.424616 L84.8931051,200.480022 L83.6307112,209.557505 L84.2478816,218.634988 L86.1554989,227.712471 L88.7083399,231.232307 L91.8783381,234.721275 L93.1407319,240.309789 L92.8040936,245.311663 L93.7859555,245.188166 L97.573124,243.798745 L98.2183475,242.409336 L100.771188,239.599638 L103.295963,238.21023 L107.728355,237.500092 L109.635973,238.920381 L112.834037,242.409336 L116.004035,242.409336 L118.528823,242.409336 L121.698821,240.309789 L122.989268,237.500092 L122.989268,235.400532 L122.989268,231.232307 L125.514056,226.323062 L126.776437,222.834094 L130.591672,222.834094 L133.144499,222.834094 L135.669287,223.544232 L140.101679,224.933641 L146.469742,227.0332 L148.377359,228.422609 L154.717369,233.300986 L160.440208,234.721275 L162.319772,234.721275 L163.273568,235.06091 L163.273568,235.06091 Z" id="path2269" stroke-width="0.542092" ></path>
            <path d="M265.162596,97.8025334 L263.248842,99.8791605 L263.248842,102.647997 L260.072824,106.14976 L257.548297,111.728151 L254.372279,113.153287 L250.585488,113.845496 L246.757979,118.731678 L244.844225,121.541232 L244.681352,122.518468 L244.192734,125.735204 L241.668207,128.504041 L242.93047,129.929177 L244.192734,133.43094 L242.93047,136.891986 L242.93047,140.393749 L241.016716,143.203303 L240.405943,145.97214 L238.492189,147.356558 L235.967662,150.858321 L230.267116,153.667875 L226.439608,154.400803 L225.177344,156.436712 L226.439608,156.436712 L228.964135,159.979193 L233.443134,163.440238 L237.229925,164.132447 L241.016716,166.942002 L243.581961,166.942002 L245.495716,169.059347 L245.495716,172.520392 L245.495716,176.755083 L244.192734,178.83171 L242.767598,182.333474 L245.495716,182.333474 L249.282506,182.333474 L255.634542,180.216128 L258.81056,180.216128 L262.638069,181.600546 L266.42486,183.717892 L270.903859,186.486728 L272.776896,188.604073 L275.301423,189.296282 L277.866668,189.296282 L278.477441,186.486728 L281.042686,181.600546 L283.567213,176.755083 L285.480968,175.329947 L290.57074,173.25332 L292.443776,172.520392 L296.271285,169.059347 L301.361058,164.132447 L303.885585,162.748029 L308.934639,157.861848 L310.237621,155.052293 L311.499884,152.283457 L312.151375,146.705067 L311.499884,142.511094 L310.848393,139.70154 L310.359775,138.032095 L308.323866,136.891986 L308.323866,133.43094 L308.323866,126.427413 L308.323866,125.531613 L306.410112,125.735204 L305.55503,125.979513 C304.801959,126.291916 304.125659,126.710786 303.356248,126.997468 L302.623321,127.811832 L299.447303,128.504041 L299.243712,128.178295 L298.18504,126.427413 L296.271285,124.350786 L291.181513,118.039468 L286.132458,111.07666 L286.132458,108.959314 L282.956441,108.267105 L279.128932,108.267105 L275.301423,106.882687 L274.039159,106.882687 L270.252369,104.765342 L268.338614,101.996506 L267.727841,99.8791605 L268.338614,98.4540242 L266.42486,97.8025334 L265.162596,97.8025334 L265.162596,97.8025334 Z" id="path2114" stroke-width="0.542092" ></path>
            <path d="M297.648107,80.3114759 L296.890671,81.7008844 L295.011106,87.2893991 L292.458278,90.0990968 L290.550661,91.4885054 L286.735439,91.4885054 L284.855875,92.8779269 L281.04064,94.2982031 L278.487813,94.2982031 L275.317801,94.9774735 L272.793027,98.4664416 L268.977792,99.8867178 L268.023996,100.936504 L268.332568,101.986277 L270.240186,104.765094 L274.05542,106.864654 L275.317801,106.864654 L279.133036,108.254063 L282.948258,108.254063 L286.118269,108.964201 L286.118269,111.06376 L291.195885,118.041684 L296.2735,124.340349 L298.181118,126.409028 L299.443498,128.508575 L302.61351,127.829305 L303.875904,126.409028 L306.428731,125.729758 L308.336349,125.513619 L308.336349,120.820501 L311.506347,109.643471 L313.413964,101.276139 L315.321582,92.8779269 L316.471763,88.3083048 L309.598743,87.2893991 L303.875904,83.1211736 L298.798288,80.3114759 L297.648107,80.3114759 L297.648107,80.3114759 Z" id="path2284" stroke-width="0.542092" ></path>
            <path d="M167.790132,129.712726 L168.687835,125.729758 L169.305005,121.530652 L169.305005,118.751822 L171.857833,115.942137 L172.475003,110.353609 L170.595439,105.475246 L169.305005,99.1765797 L167.397388,92.8779269 L166.134994,89.3889588 L165.517823,85.8999906 L162.964996,81.7008844 L161.702602,79.6013248 L161.057378,75.4330992 L159.149761,70.5238549 L159.149761,65.6454783 L159.149761,63.5459186 L157.887367,57.9574039 L157.887367,51.6587511 L154.717369,47.4905125 L153.14639,46.2554813 L143.299744,52.3688892 L134.406893,53.0790272 L125.514056,55.1477062 L122.344045,57.9574039 L122.344045,60.7671016 L124.251662,64.2560697 L124.251662,68.4242953 L123.606439,73.3335396 L119.791217,76.8225077 L111.54359,81.021614 L107.111198,85.1898525 L106.465974,88.7096883 L104.558357,94.9774735 L100.771188,99.8867178 L96.3107301,104.765094 L88.0631163,108.254063 L78.5530956,111.743031 L75.3830974,114.552715 L75.3830974,117.331545 L76.6454782,120.820501 L81.0778833,123.630198 L89.3254972,124.340349 L93.7859555,125.729758 L95.6935598,127.829305 L95.6935598,132.707681 L95.6935598,137.616925 L95.4971874,138.851957 L95.6935598,139.006347 L96.3107301,141.105894 L98.863571,142.495302 L99.4807414,143.884711 L100.771188,141.785164 L102.033569,140.395756 L103.941187,139.685604 L105.203581,141.105894 L106.465974,141.105894 L107.111198,139.006347 L110.281196,138.296196 L114.713588,136.196649 L116.004035,133.417819 L119.791217,132.707681 L124.868832,132.707681 L129.329278,134.09709 L135.024064,134.807241 L142.009297,134.09709 L148.377359,134.09709 L154.072145,130.608135 L159.794984,127.119166 L162.319772,126.409028 L164.8726,127.829305 L167.397388,129.218713 L167.790132,129.712726 L167.790132,129.712726 Z" id="path2289" stroke-width="0.542092" ></path>
            <path d="M306.288465,63.3915414 L301.968286,66.3556163 L298.181118,68.4242953 L291.813055,70.5238549 L284.855875,72.6234015 L277.225419,76.8225077 L274.05542,78.9220674 L274.05542,82.4110355 L276.580195,87.2893991 L277.225419,88.7096883 L277.225419,90.0990968 L278.487813,92.8779269 L278.712238,94.2982031 L281.04064,94.2982031 L284.855875,92.8779269 L286.735439,91.4885054 L290.550661,91.4885054 L292.458278,90.0990968 L295.011106,87.2893991 L296.890671,81.7008844 L297.648107,80.3114759 L295.011106,80.3114759 L292.458278,75.4330992 L295.011106,73.3335396 L298.181118,73.3335396 L299.443498,74.01281 L300.705892,76.8225077 L303.875904,76.8225077 L304.521127,74.7229611 L305.783508,72.6234015 L308.336349,70.5238549 L310.243966,67.7450249 L307.073955,64.2560697 L306.288465,63.3915414 L306.288465,63.3915414 Z" id="path2294" stroke-width="0.542092" ></path>
            <path d="M293.776766,32.2070058 L291.195885,31.4042257 L286.735439,32.7936473 L282.948258,33.5037853 L281.04064,35.6033319 L274.700631,48.1697829 L271.50258,53.0790272 L268.977792,61.446372 L267.070187,65.6454783 L267.070187,67.7450249 L268.977792,68.4242953 L269.594962,67.7450249 L272.793027,67.0348868 L274.05542,66.3556163 L274.05542,69.8445845 L275.317801,71.9441311 L277.225419,74.7229611 L278.487813,76.1123697 L284.855875,72.6234015 L291.813055,70.5238549 L298.181118,68.4242953 L301.968286,66.3556163 L306.288465,63.3915414 L300.705892,57.2472658 L296.2735,55.1477062 L292.458278,49.5591915 L289.933491,44.6808148 L289.288267,41.1918597 L289.288267,38.382162 L291.813055,34.8931938 L293.776766,32.2070058 L293.776766,32.2070058 Z" id="path2299" stroke-width="0.542092" ></path>
            <path d="M255.484243,112.669294 L257.560167,111.743031 L260.084954,106.154503 L263.254953,102.665548 L263.254953,99.8867178 L265.16257,97.7871712 L266.424964,97.7871712 L268.332568,98.4664416 L267.715411,99.8867178 L268.023996,100.936504 L268.977792,99.8867178 L272.793027,98.4664416 L275.317801,94.9774735 L278.487813,94.2982031 L278.712238,94.2982031 L278.487813,92.8779269 L277.225419,90.0990968 L277.225419,88.7096883 L276.580195,87.2893991 L274.05542,82.4110355 L274.05542,78.9220674 L277.225419,76.8225077 L278.487813,76.1123697 L277.225419,74.7229611 L275.317801,71.9441311 L274.05542,69.8445845 L274.05542,66.3556163 L272.793027,67.0348868 L269.594962,67.7450249 L268.977792,68.4242953 L267.070187,67.7450249 L267.070187,65.6454783 L268.977792,61.446372 L270.043813,57.8956556 L268.977792,57.9574039 L264.517347,57.2472658 L261.992572,56.5679954 L259.439731,55.8578573 L256.914943,55.1477062 L253.744945,54.4684358 L248.022106,57.2472658 L241.682096,61.446372 L234.696863,64.2560697 L230.264471,66.3556163 L226.449237,67.7450249 L226.449237,69.8445845 L225.186843,71.9441311 L223.475611,72.6851498 L224.541632,74.7229611 L227.066407,78.2119163 L228.356854,80.3114759 L230.264471,81.021614 L232.144023,83.1211736 L234.05164,84.5105821 L237.221651,86.6101417 L239.774479,87.2893991 L244.206871,90.7783673 L246.759712,92.8779269 L247.404936,94.2982031 L249.2845,97.7871712 L251.837328,104.765094 L255.007339,110.353609 L255.484243,112.669294 L255.484243,112.669294 Z" id="path2309" stroke-width="0.542092" ></path>
            <path d="M172.48802,24.7948378 L171.225756,25.1205832 L165.525211,28.6223467 L160.435439,36.3180826 L153.47263,46.0904456 L153.146885,46.2533183 L154.734894,47.4748637 L157.870194,51.6688362 L157.870194,57.9394358 L159.132457,63.5585445 L159.132457,65.6351717 L159.132457,70.5213532 L161.046212,75.4482529 L161.697702,79.6015072 L162.959966,81.7188525 L165.525211,85.912825 L166.135984,89.3738702 L167.398248,92.8756337 L169.312002,99.1869515 L170.614984,105.457551 L172.48802,110.343733 L171.877247,115.922123 L169.312002,118.731678 L169.312002,121.541232 L168.701229,125.735204 L167.805429,129.725586 L171.877247,134.815358 L172.48802,136.199776 L175.664038,137.624913 L175.664038,138.276404 L178.188565,139.70154 L180.10232,137.624913 L183.929828,136.199776 L188.978883,136.891986 L194.068655,138.276404 L194.679428,141.085958 L196.593182,141.085958 L198.506937,141.085958 L199.158427,136.891986 L201.682955,134.082431 L205.510463,131.313595 L210.559518,128.504041 L218.214535,128.504041 L221.390553,131.313595 L222.001326,133.43094 L224.525853,134.815358 L228.964135,131.313595 L232.791644,129.929177 L235.967662,129.236968 L241.668207,128.504041 L244.192734,125.735204 L244.681352,122.518468 L244.844225,121.541232 L246.757979,118.731678 L250.585488,113.845496 L254.372279,113.153287 L255.471669,112.664669 L255.023769,110.343733 L251.847751,104.765342 L249.282506,97.8025334 L247.40947,94.3007699 L246.757979,92.8756337 L244.192734,90.7582883 L239.754452,87.2972431 L237.229925,86.605034 L234.053907,84.5284069 L232.140153,83.1032706 L230.267116,81.0266435 L228.353362,80.2937162 L227.05038,78.2170891 L224.525853,74.7153257 L223.46718,72.6794167 L222.001326,73.3309076 L220.12829,76.0997438 L216.626526,79.4793527 L215.038517,81.0266435 L211.821781,83.7954797 L209.297254,83.7954797 L205.510463,80.2937162 L202.334445,77.52488 L199.7692,74.0231166 L194.679428,67.0195898 L190.241146,60.0567811 L187.716619,55.1298814 L183.278337,46.0904456 L182.667565,43.2808912 L178.840056,43.2808912 L175.664038,40.4713368 L172.48802,39.0869188 L172.48802,36.3180826 L172.48802,32.1241101 L172.48802,26.5457195 L172.48802,24.7948378 L172.48802,24.7948378 Z" id="path2106" stroke-width="0.542092" ></path>
        </g>
</svg>