<?xml version="1.0" encoding="UTF-8" standalone="no"?>
<!-- Created with Inkscape (http://www.inkscape.org/) -->
<svg
   xmlns:ns="http://creativecommons.org/ns#"
   xmlns:dc="http://purl.org/dc/elements/1.1/"
   xmlns:cc="http://web.resource.org/cc/"
   xmlns:rdf="http://www.w3.org/1999/02/22-rdf-syntax-ns#"
   xmlns:svg="http://www.w3.org/2000/svg"
   xmlns="http://www.w3.org/2000/svg"
   xmlns:sodipodi="http://sodipodi.sourceforge.net/DTD/sodipodi-0.dtd"
   xmlns:inkscape="http://www.inkscape.org/namespaces/inkscape"
   width="398.36145"
   height="1181.1598"
   id="svg2090"
   sodipodi:version="0.32"
   inkscape:version="0.45.1"
   version="1.0"
   sodipodi:docbase="C:\Documents and Settings\Faycel OUKHAI\Bureau"
   sodipodi:docname="Flag_commune_of_Tunis.SVG"
   inkscape:output_extension="org.inkscape.output.svg.inkscape">
  <defs
     id="defs2092">
    <inkscape:perspective
       sodipodi:type="inkscape:persp3d"
       inkscape:vp_x="0 : 590.5799 : 1"
       inkscape:vp_y="0 : 1000 : 0"
       inkscape:vp_z="398.36145 : 590.5799 : 1"
       inkscape:persp3d-origin="199.18073 : 393.71993 : 1"
       id="perspective77" />
  </defs>
  <sodipodi:namedview
     id="base"
     pagecolor="#ffffff"
     bordercolor="#666666"
     borderopacity="1.0"
     gridtolerance="10000"
     guidetolerance="10"
     objecttolerance="10"
     inkscape:pageopacity="0.0"
     inkscape:pageshadow="2"
     inkscape:zoom="0.62904275"
     inkscape:cx="199.18073"
     inkscape:cy="399.81385"
     inkscape:document-units="px"
     inkscape:current-layer="layer1"
     width="750px"
     height="1250px"
     inkscape:window-width="1279"
     inkscape:window-height="748"
     inkscape:window-x="1"
     inkscape:window-y="0"
     showgrid="false" />
  <metadata
     id="metadata2095">
    <rdf:RDF>
      <ns:Work
         rdf:about="">
        <dc:format>image/svg+xml</dc:format>
        <dc:type
           rdf:resource="http://purl.org/dc/dcmitype/StillImage" />
      </ns:Work>
      <cc:Work
         rdf:about="">
        <dc:format>image/svg+xml</dc:format>
        <dc:type
           rdf:resource="http://purl.org/dc/dcmitype/StillImage" />
      </cc:Work>
    </rdf:RDF>
  </metadata>
  <g
     inkscape:label="Layer 1"
     inkscape:groupmode="layer"
     id="layer1"
     transform="translate(-190.197, -45.3026)">
    <path
       style="fill: rgb(128, 229, 255); fill-opacity: 1; fill-rule: evenodd; stroke: black; stroke-width: 0.542092; stroke-linecap: butt; stroke-linejoin: miter; stroke-opacity: 1;"
       d="M 389.28125,468.3125 C 390.98357,467.83082 392.62612,467.25311 394.40625,466.9375 C 397.52147,466.38518 400.75954,466.09375 404.0625,466.09375 C 407.002,466.09375 409.86264,466.40387 412.65625,466.84375 L 412.78125,466.84375 L 413.78125,466.9375 L 417.65625,467.375 L 418.625,466.3125 L 418.125,464.15625 L 412.3125,460.9375 L 405.9375,457.1875 L 400.125,456.125 L 393.28125,457.71875 L 389.40625,458.25 L 386.46875,459.875 L 386,460.40625 L 388.90625,461.46875 L 390.375,462.03125 L 391.84375,462.5625 L 391.34375,465.25 L 390.375,467.90625 L 389.28125,468.3125 z "
       id="path2111" />
    <path
       style="fill: rgb(128, 229, 255); fill-opacity: 1; fill-rule: evenodd; stroke: black; stroke-width: 0.542092; stroke-linecap: butt; stroke-linejoin: miter; stroke-opacity: 1;"
       d="M 379.15625,447.53125 L 371.84375,448.09375 L 366.5,450.21875 L 356.25,455.0625 L 341.65625,460.9375 L 334.84375,463.09375 L 322.15625,466.59375 L 322.15625,467.90625 L 322.15625,472.21875 L 322.15625,475.4375 L 322.15625,477.5625 L 324.625,478.625 L 327.03125,480.78125 L 329.96875,480.78125 L 330.4375,482.90625 L 333.875,489.875 L 335.8125,493.65625 L 339.21875,499 L 343.09375,504.375 L 345.0625,507.0625 L 347.5,509.1875 L 350.4375,511.875 L 352.375,511.875 L 354.8125,509.75 L 356.28125,508.34375 L 358.71875,505.96875 L 360.15625,503.84375 L 362.625,502.78125 L 363.59375,501.15625 L 363.59375,499.5625 L 366.5,498.5 L 369.90625,496.875 L 375.28125,494.71875 L 380.125,491.5 L 384.53125,489.375 L 386.96875,489.875 L 388.90625,490.4375 L 390.875,490.96875 L 392.8125,491.5 L 396.21875,492.03125 L 397.03125,492 L 398.15625,488.28125 L 400.625,484.53125 L 405.46875,474.875 L 406.9375,473.28125 L 409.84375,472.71875 L 413.28125,471.65625 L 415.25,472.28125 L 415.71875,471.65625 L 414.75,471.15625 L 411.3125,469.53125 L 408.40625,467.375 L 408.875,466.84375 L 412.65625,466.84375 C 409.86264,466.40387 407.002,466.09375 404.0625,466.09375 C 400.75954,466.09375 397.52147,466.38518 394.40625,466.9375 C 392.62612,467.25311 390.98357,467.83082 389.28125,468.3125 L 386,469.53125 L 385.46875,469.34375 L 385.4375,469.34375 L 381.59375,467.90625 L 379.65625,465.75 L 380.125,462.5625 L 380.125,459.875 L 382.09375,458.25 L 383.5625,458.25 L 386.46875,456.65625 L 387.46875,455.0625 L 387.46875,453.4375 L 385,450.21875 L 379.15625,447.53125 z "
       id="path2109" />
    <path
       style="fill: rgb(255, 213, 213); fill-opacity: 1; fill-rule: evenodd; stroke: black; stroke-width: 0.722789; stroke-linecap: butt; stroke-linejoin: miter; stroke-miterlimit: 4; stroke-dasharray: none; stroke-opacity: 1;"
       d="M 457.93318,828.86811 L 457.93318,831.54904 L 457.44601,833.15759 L 456.95885,836.3747 L 456.95885,839.59181 L 457.44601,841.73655 L 458.90752,844.41748 L 461.83052,845.48984 L 464.26636,844.41748 L 464.75352,842.80892 L 466.70219,843.34511 L 467.67653,843.88129 L 468.16369,846.02603 L 469.13803,849.77933 L 469.13803,851.38788 L 470.11237,852.46025 L 471.0867,851.92406 L 472.06104,848.17077 L 476.44554,844.95366 L 479.85571,842.27273 L 482.77871,839.05562 L 484.24022,838.51944 L 486.18888,836.91089 L 486.67605,834.76615 L 485.21455,833.15759 L 483.26588,832.08522 L 482.29155,831.01285 L 477.41987,828.33193 L 475.4712,826.72337 L 469.6252,826.18719 L 462.80486,825.11482 L 460.85619,825.651 L 457.93318,828.86811 z "
       id="path2190" />
    <path
       style="fill: rgb(246, 213, 255); fill-opacity: 1; fill-rule: evenodd; stroke: black; stroke-width: 0.722789; stroke-linecap: butt; stroke-linejoin: miter; stroke-miterlimit: 4; stroke-dasharray: none; stroke-opacity: 1;"
       d="M 499.82957,724.31204 L 496.90656,729.67389 L 494.47073,731.81863 L 493.49639,735.03574 L 491.06056,738.25285 L 491.54773,739.86141 L 493.00923,739.32522 L 495.44506,737.71667 L 500.31674,733.96337 L 503.72691,731.28245 L 505.67557,728.60152 L 506.64991,726.99296 L 506.64991,725.38441 L 505.18841,724.31204 L 502.75257,723.77585 L 499.82957,724.31204 z "
       id="path2192" />
    <path
       style="fill: rgb(255, 0, 102); fill-opacity: 1; fill-rule: evenodd; stroke: black; stroke-width: 0.542092; stroke-linecap: butt; stroke-linejoin: miter; stroke-opacity: 1;"
       d="M 256.73753,732.36146 L 261.10811,733.97281 L 267.45945,736.10547 L 271.83003,738.78315 L 275.72695,739.32816 L 280.11906,739.87318 L 284.98483,738.78315 L 295.70675,733.97281 L 307.8927,727.52743 L 314.69617,722.17208 L 318.11943,716.27171 L 319.58347,711.43767 L 322.49001,708.76 L 322.9852,705.53731 L 325.91327,703.92596 L 332.24308,701.7933 L 336.63519,698.57061 L 338.09923,691.0589 L 338.09923,685.18223 L 337.10885,681.95954 L 335.17115,680.34819 L 333.70712,679.28186 L 332.24308,678.73685 L 329.81019,677.67051 L 328.84135,674.99284 L 328.84135,671.22513 L 331.27423,666.4148 L 334.67596,664.25844 L 335.17115,662.12577 L 335.64481,659.96941 L 338.09923,658.35807 L 341.00577,656.22541 L 342.46981,654.06905 L 342.46981,649.78003 L 340.53211,647.10235 L 337.10885,644.42467 L 332.73827,641.20198 L 328.84135,638.52431 L 326.88212,636.91296 L 323.95405,635.84663 L 323.48039,635.30162 L 320.05713,634.23528 L 318.11943,632.07893 L 318.11943,631.01259 L 316.1602,627.7899 L 314.69617,627.26859 L 313.25366,627.26859 L 308.86155,626.17856 L 303.99578,622.43455 L 302.53174,621.36822 L 297.64444,619.75687 L 294.24271,618.69054 L 292.30501,618.14553 L 290.34579,618.14553 L 287.41771,618.14553 L 286.44887,620.82321 L 284.51117,624.59091 L 284.51117,627.7899 L 284.51117,629.40125 L 283.52079,631.55761 L 281.08791,633.16895 L 279.15021,633.16895 L 276.71733,633.16895 L 274.26291,630.49128 L 272.79887,629.40125 L 269.39714,629.94626 L 267.45945,631.01259 L 265.50022,633.16895 L 265.00503,634.23528 L 262.09849,635.30162 L 261.34494,635.3964 L 260.63445,645.491 L 259.6656,654.06905 L 258.20157,661.03575 L 258.20157,665.86978 L 259.17041,670.1588 L 261.10811,674.44782 L 265.50022,682.48085 L 265.99541,683.57088 L 265.50022,684.63721 L 263.56252,686.24856 L 261.10811,689.47125 L 258.20157,695.34792 L 256.73753,701.24829 L 256.24234,710.37134 L 255.27349,716.81672 L 255.27349,725.91608 L 255.76868,727.52743 L 256.24234,730.20511 L 256.73753,731.81645 L 256.73753,732.36146 z "
       id="path2199" />
    <path
       style="fill: rgb(204, 255, 170); fill-opacity: 1; fill-rule: evenodd; stroke: black; stroke-width: 0.542092; stroke-linecap: butt; stroke-linejoin: miter; stroke-opacity: 1;"
       d="M 484.25,474.4375 L 482.28125,476.0625 L 479.375,477.125 L 474.03125,479.8125 L 472.0625,481.96875 L 469.625,486.25 L 465.71875,490 L 464.25,491.59375 L 462.3125,494.28125 L 455.96875,497.5 L 452.09375,498.0625 L 450.84375,497.8125 L 449.1875,497.5 L 447.71875,498.0625 L 444.78125,501.25 L 442.8125,506.625 L 442.34375,510.90625 L 439.40625,510.90625 L 437.46875,513.59375 L 435.03125,515.21875 L 433,514.90625 L 432.125,518.40625 L 430.65625,524.84375 L 429.1875,531.28125 L 426.75,539.84375 L 426.75,542.8125 L 426.75,544.15625 L 426.75,549.53125 L 426.75,552.1875 L 428.6875,553.25 L 433.09375,553.25 L 442.34375,553.71875 L 442.8125,552.75 L 445.28125,551.125 L 447.71875,550.59375 L 449.1875,550.59375 L 451.59375,547.90625 L 458.90625,544.6875 L 464.25,543.625 L 465.71875,539.84375 L 469.125,532.875 L 473.53125,521.125 L 478.875,512.5 L 484.25,504.46875 L 488.625,497.5 L 489.59375,494.84375 L 489.59375,492.15625 L 489.125,490 L 487.1875,481.96875 L 486.6875,476.59375 L 486.1875,475 L 484.25,474.4375 z "
       id="path2119" />
    <path
       style="fill: rgb(170, 204, 255); fill-opacity: 1; fill-rule: evenodd; stroke: black; stroke-width: 0.542092; stroke-linecap: butt; stroke-linejoin: miter; stroke-opacity: 1;"
       d="M 391.36433,915.03587 L 391.1921,916.26808 L 390.69691,917.87942 L 391.68728,919.49077 L 395.58421,923.23477 L 396.55305,926.97878 L 395.08902,931.2678 L 393.12979,938.77951 L 391.1921,948.44759 L 392.65613,954.86927 L 395.08902,958.61328 L 397.02671,961.83597 L 393.12979,960.76964 L 390.69691,960.22462 L 386.32633,955.9356 L 380.96537,949.51392 L 376.57326,945.2249 L 372.67633,944.67988 L 368.77941,946.29123 L 364.88249,948.44759 L 360.98557,952.73661 L 356.59346,953.80294 L 350.75884,955.9356 L 338.09923,959.15829 L 330.30538,960.76964 L 320.55231,960.76964 L 303.50059,964.51364 L 276.71733,972.02536 L 262.42144,975.95893 L 263.06734,976.31438 L 264.53137,976.85939 L 266.96426,978.99205 L 270.86118,982.21474 L 275.72695,985.95875 L 280.61425,990.27147 L 285.48002,994.56049 L 293.27386,1000.9822 L 305.45982,1010.6265 L 308.86155,1013.8492 L 313.25366,1017.6169 L 320.55231,1022.4273 L 359.52153,1225.1014 L 361.95442,1226.1914 L 367.81056,1222.4237 L 376.0996,1218.6796 L 380.47018,1216.002 L 386.32633,1215.457 L 388.75921,1214.912 L 390.69691,1211.7129 L 391.1921,1210.6229 L 394.12017,1206.8789 L 411.64555,1180.0784 L 419.4394,1165.055 L 422.36747,1157.022 L 423.33632,1153.7993 L 422.36747,1145.2213 L 419.4394,1132.3542 L 415.54247,1119.4871 L 409.21267,1101.786 L 408.24382,1095.8857 L 408.24382,1092.663 L 413.10959,1081.4073 L 419.4394,1069.0852 L 423.33632,1064.2512 L 424.80035,1063.1848 L 430.16131,1062.6398 L 435.52227,1064.2512 L 439.91438,1063.7061 L 447.21304,1053.5405 L 451.10996,1047.0951 L 456.47092,1039.062 L 457.43977,1036.9057 L 459.87265,1035.8394 L 461.83188,1033.1617 L 463.29591,1032.0717 L 464.75995,1032.0717 L 465.7288,1031.5503 L 468.65687,1025.65 L 472.0586,1018.6833 L 495.69849,1005.2475 L 496.40898,1003.1385 L 499.83225,997.23817 L 504.69802,989.18144 L 508.59494,982.21474 L 510.55416,978.47074 L 510.55416,976.85939 L 502.26513,969.89269 L 496.40898,965.05866 L 491.06955,958.61328 L 489.60552,956.48061 L 489.60552,951.64658 L 489.60552,937.71318 L 488.14148,930.74649 L 485.21341,923.77979 L 484.24456,918.94575 L 480.34764,915.72306 L 474.01783,912.52407 L 466.22399,908.23505 L 460.36784,906.07869 L 458.43014,902.33468 L 454.53322,898.04566 L 451.10996,895.34428 L 444.78015,894.27795 L 438.924,896.43431 L 431.13016,900.17832 L 424.3267,903.40101 L 417.00651,905.01236 L 409.21267,907.14502 L 404.84209,913.04539 L 399.95479,914.65673 L 391.36433,915.03587 z "
       id="path2229" />
    <path
       style="fill: rgb(255, 213, 213); fill-opacity: 1; fill-rule: evenodd; stroke: black; stroke-width: 0.542092; stroke-linecap: butt; stroke-linejoin: miter; stroke-opacity: 1;"
       d="M 391.36433,915.03587 L 399.95479,914.65673 L 404.84209,913.04539 L 409.21267,907.14502 L 417.00651,905.01236 L 424.3267,903.40101 L 431.13016,900.17832 L 438.924,896.43431 L 444.78015,894.27795 L 451.10996,895.34428 L 454.53322,898.04566 L 458.43014,902.33468 L 460.36784,906.07869 L 466.22399,908.23505 L 474.01783,912.52407 L 480.34764,915.72306 L 484.24456,918.94575 L 485.21341,923.77979 L 488.14148,930.74649 L 489.60552,937.71318 L 489.60552,951.64658 L 489.60552,956.48061 L 491.06955,958.61328 L 496.40898,965.05866 L 502.26513,969.89269 L 510.55416,976.85939 L 510.55416,978.47074 L 508.59494,982.21474 L 504.69802,989.18144 L 499.83225,997.23817 L 496.40898,1003.1385 L 495.69849,1005.2475 L 502.26513,1001.5272 L 522.24493,990.79279 L 528.57474,983.82609 L 529.54358,982.75976 L 529.54358,981.14841 L 529.06992,978.99205 L 528.57474,976.31438 L 527.1107,972.02536 L 523.21378,968.80267 L 521.25455,964.51364 L 520.2857,960.22462 L 520.2857,947.90257 L 520.2857,936.64685 L 520.78089,931.2678 L 521.74974,923.77979 L 522.71859,917.33441 L 525.173,909.30138 L 525.64666,907.69003 L 526.61551,906.07869 L 525.64666,904.46734 L 522.24493,903.92233 L 512.98705,903.40101 L 503.23398,901.78967 L 496.40898,900.17832 L 493.00725,896.95563 L 491.06955,890.53395 L 490.07918,884.08857 L 489.60552,876.57685 L 490.57437,871.2215 L 491.54321,867.99881 L 491.06955,863.70979 L 488.14148,859.42077 L 486.18225,855.13175 L 483.74937,853.5441 L 477.91475,853.5441 L 474.01783,855.13175 L 473.02745,856.74309 L 474.49149,858.89945 L 475.48187,859.96578 L 474.98668,862.64346 L 472.0586,865.32113 L 467.19283,867.47749 L 464.26476,869.61016 L 460.86303,871.2215 L 456.96611,869.08884 L 455.50207,866.41116 L 454.53322,863.70979 L 455.97573,862.12214 L 456.96611,860.51079 L 458.43014,856.74309 L 458.43014,855.13175 L 458.43014,850.84272 L 458.9038,847.09872 L 456.47092,846.5537 L 455.50207,845.48737 L 451.60515,847.64373 L 448.18188,849.23138 L 445.27534,850.84272 L 442.34727,852.45407 L 439.41919,853.5441 L 437.4815,852.45407 L 436.06052,851.67209 L 433.58458,854.06541 L 429.19246,861.57713 L 424.3267,870.70018 L 420.42977,874.9892 L 415.54247,877.12187 L 413.10959,878.1882 L 410.18152,881.41089 L 405.31575,886.24492 L 402.38767,888.37759 L 397.5219,889.98893 L 390.69691,890.53395 L 382.90306,892.14529 L 378.53248,892.7377 L 378.53248,893.75664 L 379.00614,894.82297 L 381.93421,897.50064 L 388.75921,900.17832 L 391.68728,901.24465 L 392.65613,903.40101 L 393.12979,905.01236 L 391.68728,912.52407 L 391.36433,915.03587 z "
       id="path2224" />
    <path
       style="fill: rgb(213, 255, 246); fill-opacity: 1; fill-rule: evenodd; stroke: black; stroke-width: 0.542092; stroke-linecap: butt; stroke-linejoin: miter; stroke-opacity: 1;"
       d="M 378.53248,892.7377 L 382.90306,892.14529 L 390.69691,890.53395 L 397.5219,889.98893 L 402.38767,888.37759 L 405.31575,886.24492 L 410.18152,881.41089 L 413.10959,878.1882 L 415.54247,877.12187 L 420.42977,874.9892 L 424.3267,870.70018 L 429.19246,861.57713 L 433.58458,854.06541 L 436.06052,851.67209 L 431.62535,849.23138 L 424.80035,846.03238 L 419.93458,841.19835 L 413.60478,834.23165 L 407.74863,826.19862 L 402.88286,817.07556 L 400.44998,807.95251 L 398.49075,798.85315 L 398.01709,794.56413 L 398.3831,794.56413 L 397.02671,793.4741 L 396.05786,793.4741 L 395.08902,795.08544 L 392.65613,796.69679 L 390.69691,795.08544 L 388.75921,792.95278 L 385.83114,790.25141 L 382.90306,789.73009 L 379.99652,790.25141 L 377.5421,789.18508 L 375.60441,787.57373 L 373.64518,784.89605 L 372.18115,781.67336 L 369.74826,781.67336 L 366.34653,783.28471 L 360.01672,787.57373 L 355.15095,789.73009 L 348.32596,789.18508 L 344.90269,787.57373 L 342.46981,789.18508 L 339.06807,791.34144 L 338.57289,791.34144 L 339.06807,794.01911 L 339.54173,795.08544 L 339.54173,798.30813 L 338.57289,804.2085 L 337.10885,810.10887 L 336.14,812.24153 L 338.57289,822.43092 L 339.06807,827.78627 L 342.965,836.36431 L 347.33558,843.87603 L 350.26365,846.5537 L 356.1198,849.77639 L 360.98557,854.06541 L 363.41845,858.35444 L 364.88249,859.42077 L 363.91364,861.03211 L 362.94479,863.70979 L 361.95442,866.41116 L 360.98557,869.08884 L 361.48076,870.70018 L 370.24345,883.02223 L 377.5421,891.05526 L 378.53248,891.60028 L 378.53248,892.7377 z "
       id="path2219" />
    <path
       style="fill: yellow; fill-opacity: 1; fill-rule: evenodd; stroke: black; stroke-width: 0.542092; stroke-linecap: butt; stroke-linejoin: miter; stroke-opacity: 1;"
       d="M 262.42144,975.95893 L 276.71733,972.02536 L 303.50059,964.51364 L 320.55231,960.76964 L 330.30538,960.76964 L 338.09923,959.15829 L 350.75884,955.9356 L 356.59346,953.80294 L 360.98557,952.73661 L 364.88249,948.44759 L 368.77941,946.29123 L 372.67633,944.67988 L 376.57326,945.2249 L 380.96537,949.51392 L 386.32633,955.9356 L 390.69691,960.22462 L 393.12979,960.76964 L 397.02671,961.83597 L 395.08902,958.61328 L 392.65613,954.86927 L 391.1921,948.44759 L 393.12979,938.77951 L 395.08902,931.2678 L 396.55305,926.97878 L 395.58421,923.23477 L 391.68728,919.49077 L 390.69691,917.87942 L 391.1921,916.26808 L 391.68728,912.52407 L 393.12979,905.01236 L 392.65613,903.40101 L 391.68728,901.24465 L 388.75921,900.17832 L 381.93421,897.50064 L 379.00614,894.82297 L 378.53248,893.75664 L 378.53248,891.60028 L 377.5421,891.05526 L 370.24345,883.02223 L 361.48076,870.70018 L 360.98557,869.08884 L 361.95442,866.41116 L 362.94479,863.70979 L 363.91364,861.03211 L 364.88249,859.42077 L 363.41845,858.35444 L 360.98557,854.06541 L 356.1198,849.77639 L 350.26365,846.5537 L 347.33558,843.87603 L 342.965,836.36431 L 339.06807,827.78627 L 338.57289,822.43092 L 336.14,812.24153 L 337.10885,810.10887 L 338.57289,804.2085 L 339.54173,798.30813 L 339.54173,795.08544 L 339.06807,794.01911 L 338.57289,791.34144 L 335.17115,791.34144 L 331.74789,793.4741 L 322.9852,793.4741 L 319.58347,795.08544 L 318.11943,797.76312 L 316.1602,802.05214 L 312.75847,803.14217 L 311.78962,801.53082 L 307.8927,801.53082 L 304.46944,802.05214 L 298.63482,803.14217 L 295.21156,803.14217 L 291.31464,804.2085 L 287.31006,803.40283 L 287.41771,804.2085 L 287.41771,807.43119 L 285.48002,810.10887 L 284.01598,814.39789 L 280.61425,818.68691 L 277.68617,823.49725 L 273.78925,826.19862 L 270.36599,828.8763 L 267.9331,832.62031 L 263.56252,835.843 L 260.13926,839.06569 L 255.27349,841.74336 L 251.87176,844.94236 L 250.88138,844.94236 L 249.41734,848.71006 L 247.47965,849.77639 L 245.04676,852.45407 L 243.08754,852.99908 L 240.65465,856.22177 L 237.72658,859.42077 L 235.29369,860.51079 L 234.82003,861.57713 L 233.82966,861.57713 L 231.39677,863.18847 L 229.93273,865.86615 L 228.4687,867.47749 L 227.49985,868.54382 L 222.63408,871.2215 L 217.76831,874.44419 L 214.84024,876.05554 L 209.47928,877.35883 L 209.47928,879.79954 L 209.47928,893.21162 L 210.44813,897.50064 L 212.40735,899.63331 L 214.34505,901.78967 L 219.70601,903.92233 L 222.63408,906.07869 L 227.49985,907.14502 L 232.86081,910.36771 L 235.78888,910.91272 L 239.6858,911.97905 L 240.65465,912.52407 L 240.65465,914.65673 L 241.6235,916.26808 L 244.05639,918.40074 L 250.40772,929.13514 L 256.24234,939.86954 L 258.67522,944.67988 L 259.17041,948.44759 L 259.6656,956.48061 L 261.10811,967.21502 L 261.6033,973.6367 L 262.09849,975.79306 L 262.42144,975.95893 z "
       id="path2214" />
    <path
       style="fill: rgb(170, 255, 170); fill-opacity: 1; fill-rule: evenodd; stroke: black; stroke-width: 0.542092; stroke-linecap: butt; stroke-linejoin: miter; stroke-opacity: 1;"
       d="M 209.47928,877.35883 L 214.84024,876.05554 L 217.76831,874.44419 L 222.63408,871.2215 L 227.49985,868.54382 L 228.4687,867.47749 L 229.93273,865.86615 L 231.39677,863.18847 L 233.82966,861.57713 L 234.82003,861.57713 L 235.29369,860.51079 L 237.72658,859.42077 L 240.65465,856.22177 L 243.08754,852.99908 L 245.04676,852.45407 L 247.47965,849.77639 L 249.41734,848.71006 L 250.88138,844.94236 L 251.87176,844.94236 L 255.27349,841.74336 L 260.13926,839.06569 L 263.56252,835.843 L 267.9331,832.62031 L 270.36599,828.8763 L 273.78925,826.19862 L 277.68617,823.49725 L 280.61425,818.68691 L 284.01598,814.39789 L 285.48002,810.10887 L 287.41771,807.43119 L 287.41771,804.2085 L 287.31006,803.40283 L 285.95368,803.14217 L 273.29406,802.59715 L 268.90195,803.66349 L 264.53137,804.2085 L 261.10811,802.59715 L 259.6656,796.69679 L 257.21119,793.4741 L 252.84061,792.95278 L 249.91253,791.34144 L 245.52042,788.11874 L 239.19062,782.21838 L 236.75773,780.08572 L 234.32485,779.5407 L 235.29369,777.38434 L 236.26254,775.25168 L 239.19062,772.02899 L 242.11869,771.50767 L 242.61388,768.28498 L 242.61388,766.12862 L 242.61388,761.31828 L 242.61388,756.48425 L 242.61388,754.68333 L 239.6858,757.55058 L 236.26254,757.55058 L 235.29369,759.70694 L 224.09812,764.51728 L 219.70601,768.8063 L 218.73716,772.02899 L 218.73716,776.31801 L 216.77793,783.82972 L 213.3762,787.57373 L 207.52005,789.18508 L 205.08717,789.18508 L 204.11832,790.25141 L 200.2214,793.4741 L 197.78851,797.76312 L 193.89159,801.53082 L 192.42755,805.27483 L 191.93236,816.00923 L 191.45871,819.20823 L 190.46833,823.49725 L 190.46833,826.19862 L 191.45871,830.48764 L 193.3964,836.90933 L 194.36525,842.26468 L 194.86044,845.48737 L 195.82929,849.23138 L 196.81966,850.84272 L 199.72621,856.74309 L 203.62313,863.70979 L 207.04639,869.08884 L 209.47928,876.57685 L 209.47928,877.35883 z "
       id="path2209" />
    <path
       style="fill: rgb(244, 238, 215); fill-opacity: 1; fill-rule: evenodd; stroke: black; stroke-width: 0.542092; stroke-linecap: butt; stroke-linejoin: miter; stroke-opacity: 1;"
       d="M 361.95442,786.27044 L 361.95442,778.99569 L 362.44961,775.25168 L 361.95442,773.09532 L 359.04787,770.41764 L 351.25403,765.06229 L 345.89307,760.22826 L 341.50096,757.02926 L 339.54173,754.32789 L 338.09923,748.45122 L 337.10885,746.29486 L 337.10885,743.61718 L 336.14,742.00584 L 333.70712,739.87318 L 325.91327,737.71682 L 317.15058,736.65049 L 309.35674,734.49413 L 303.99578,733.4278 L 302.03655,732.88278 L 300.65864,731.36622 L 295.70675,733.97281 L 284.98483,738.78315 L 280.11906,739.87318 L 275.72695,739.32816 L 271.83003,738.78315 L 267.45945,736.10547 L 261.10811,733.97281 L 256.73753,732.36146 L 256.73753,732.88278 L 254.7783,732.88278 L 253.31427,733.97281 L 251.87176,736.10547 L 251.37657,737.71682 L 251.87176,739.32816 L 252.84061,740.93951 L 253.80945,741.46082 L 253.31427,743.61718 L 249.91253,747.36119 L 244.05639,753.26156 L 242.61388,754.68333 L 242.61388,756.48425 L 242.61388,761.31828 L 242.61388,766.12862 L 242.61388,768.28498 L 242.11869,771.50767 L 239.19062,772.02899 L 236.26254,775.25168 L 235.29369,777.38434 L 234.32485,779.5407 L 236.75773,780.08572 L 239.19062,782.21838 L 245.52042,788.11874 L 249.91253,791.34144 L 252.84061,792.95278 L 257.21119,793.4741 L 259.6656,796.69679 L 261.10811,802.59715 L 264.53137,804.2085 L 268.90195,803.66349 L 273.29406,802.59715 L 285.95368,803.14217 L 291.31464,804.2085 L 295.21156,803.14217 L 298.63482,803.14217 L 304.46944,802.05214 L 307.8927,801.53082 L 311.78962,801.53082 L 312.75847,803.14217 L 316.1602,802.05214 L 318.11943,797.76312 L 319.58347,795.08544 L 322.9852,793.4741 L 331.74789,793.4741 L 335.17115,791.34144 L 339.06807,791.34144 L 342.46981,789.18508 L 344.90269,787.57373 L 348.32596,789.18508 L 355.15095,789.73009 L 360.01672,787.57373 L 361.95442,786.27044 z "
       id="path2234" />
    <path
       style="fill: rgb(246, 213, 255); fill-opacity: 1; fill-rule: evenodd; stroke: black; stroke-width: 0.542092; stroke-linecap: butt; stroke-linejoin: miter; stroke-opacity: 1;"
       d="M 482.78052,693.76027 L 478.8836,693.76027 L 474.01783,689.47125 L 469.62572,686.76988 L 466.22399,682.48085 L 461.83188,680.34819 L 457.93495,679.80318 L 452.07881,677.67051 L 448.18188,678.73685 L 447.70823,682.48085 L 445.749,685.18223 L 440.38804,688.92623 L 433.58458,691.60391 L 431.13016,693.21526 L 429.19246,691.60391 L 424.3267,689.47125 L 419.93458,687.8599 L 416.53285,687.8599 L 413.60478,688.38122 L 409.21267,692.67024 L 402.88286,701.24829 L 397.02671,714.66036 L 387.79036,731.27144 L 383.89344,742.55085 L 384.3671,746.29486 L 386.79998,748.45122 L 394.12017,748.97254 L 398.49075,750.58388 L 401.41882,753.26156 L 403.37805,755.41792 L 403.85171,757.55058 L 403.85171,759.70694 L 399.95479,763.45095 L 394.59383,766.12862 L 391.68728,766.12862 L 388.75921,767.73997 L 384.3671,770.41764 L 377.5421,774.18535 L 375.60441,777.92936 L 375.60441,779.5407 L 377.06844,781.67336 L 378.03729,782.76339 L 378.03729,783.82972 L 378.03729,785.96239 L 377.26221,788.94811 L 377.5421,789.18508 L 379.99652,790.25141 L 382.90306,789.73009 L 385.83114,790.25141 L 388.75921,792.95278 L 390.69691,795.08544 L 392.65613,796.69679 L 395.08902,795.08544 L 396.05786,793.4741 L 397.02671,793.4741 L 398.3831,794.56413 L 399.95479,794.56413 L 399.95479,791.86275 L 400.94516,789.73009 L 403.85171,786.5074 L 404.84209,784.89605 L 409.21267,779.5407 L 412.14074,777.92936 L 416.03766,775.25168 L 424.80035,770.96266 L 426.26439,769.35131 L 428.22362,768.8063 L 431.62535,763.99596 L 433.08939,761.8396 L 432.5942,760.77327 L 434.55342,758.61691 L 438.45035,757.02926 L 443.8113,754.8729 L 446.71785,754.32789 L 447.70823,751.65021 L 448.67707,750.03887 L 449.64592,747.36119 L 452.574,743.61718 L 454.53322,743.07217 L 457.43977,743.07217 L 458.43014,743.07217 L 460.86303,737.71682 L 462.80072,733.4278 L 466.69765,726.98241 L 468.16168,724.30474 L 469.62572,721.62706 L 472.0586,719.4944 L 478.38841,706.62733 L 481.81167,698.57061 L 482.78052,695.34792 L 482.78052,693.76027 z "
       id="path2239" />
    <path
       style="fill: rgb(85, 212, 0); fill-opacity: 1; fill-rule: evenodd; stroke: black; stroke-width: 0.542092; stroke-linecap: butt; stroke-linejoin: miter; stroke-opacity: 1;"
       d="M 482.78052,642.45788 L 478.8836,643.87966 L 472.0586,647.10235 L 468.65687,651.39137 L 465.7288,654.61406 L 463.76957,653.52403 L 459.87265,652.4577 L 455.50207,651.39137 L 450.6363,649.23501 L 445.27534,647.64736 L 441.85208,646.55734 L 437.95516,646.03602 L 434.05823,645.491 L 431.13016,645.491 L 426.75958,642.26831 L 424.3267,640.13565 L 421.87228,640.13565 L 420.90343,641.747 L 418.96574,642.81333 L 416.03766,649.23501 L 414.57363,656.74672 L 413.10959,665.32477 L 413.10959,670.70382 L 415.54247,676.05917 L 416.53285,680.34819 L 417.97536,684.63721 L 416.53285,685.70354 L 415.564,688.02578 L 416.53285,687.8599 L 419.93458,687.8599 L 424.3267,689.47125 L 429.19246,691.60391 L 431.13016,693.21526 L 433.58458,691.60391 L 440.38804,688.92623 L 445.749,685.18223 L 447.70823,682.48085 L 448.18188,678.73685 L 452.07881,677.67051 L 457.93495,679.80318 L 461.83188,680.34819 L 466.22399,682.48085 L 469.62572,686.76988 L 474.01783,689.47125 L 478.8836,693.76027 L 482.78052,693.76027 L 482.78052,691.60391 L 483.74937,687.8599 L 486.67744,685.18223 L 488.14148,685.70354 L 491.06955,680.86951 L 493.50244,678.19183 L 491.54321,676.58049 L 490.07918,675.51416 L 486.67744,672.83648 L 484.24456,668.00244 L 483.74937,664.25844 L 483.27571,659.96941 L 484.71822,654.61406 L 487.17263,650.84636 L 485.7086,648.16868 L 482.78052,645.491 L 482.78052,642.45788 z "
       id="path2244" />
    <path
       style="fill: rgb(255, 42, 127); fill-opacity: 1; fill-rule: evenodd; stroke: black; stroke-width: 0.542092; stroke-linecap: butt; stroke-linejoin: miter; stroke-opacity: 1;"
       d="M 455.67431,617.31616 C 455.63877,617.42999 455.65057,617.6156 455.60972,617.719 C 455.38136,618.29707 455.07453,618.72069 454.77005,619.02229 C 454.16109,619.6255 453.54284,619.75687 453.54284,619.75687 L 451.10996,622.43455 L 451.10996,623.50088 L 451.10996,625.65724 L 451.10996,626.72357 L 452.07881,629.40125 L 451.60515,632.07893 L 449.17226,635.30162 L 445.749,640.13565 L 440.12968,646.32037 L 441.85208,646.55734 L 445.27534,647.64736 L 450.6363,649.23501 L 455.50207,651.39137 L 459.87265,652.4577 L 463.76957,653.52403 L 465.7288,654.61406 L 468.65687,651.39137 L 472.0586,647.10235 L 478.8836,643.87966 L 482.78052,642.45788 L 482.78052,642.26831 L 482.78052,639.59064 L 483.74937,637.45798 L 484.71822,635.84663 L 484.24456,633.16895 L 481.81167,632.07893 L 477.41956,630.49128 L 473.52264,629.40125 L 469.13053,627.7899 L 465.23361,624.0459 L 461.33669,619.75687 L 455.97573,617.60052 L 455.67431,617.31616 z "
       id="path2249" />
    <path
       style="fill: white; fill-opacity: 1; fill-rule: evenodd; stroke: black; stroke-width: 0.542092; stroke-linecap: butt; stroke-linejoin: miter; stroke-opacity: 1;"
       d="M 414.83199,579.30737 L 414.57363,579.54434 L 413.10959,580.08935 L 409.21267,581.677 L 407.74863,582.76703 L 405.81093,586.51103 L 403.85171,590.25504 L 403.37805,592.4114 L 401.41882,592.4114 L 399.48113,591.86639 L 398.01709,590.25504 L 394.59383,588.12238 L 391.68728,586.51103 L 388.75921,585.4447 L 386.32633,585.4447 L 381.43903,587.05605 L 378.53248,587.05605 L 376.0996,587.05605 L 373.64518,589.18871 L 370.24345,592.4114 L 362.94479,595.63409 L 358.05749,601.53446 L 355.62461,605.82348 L 355.62461,609.02247 L 355.62461,616.01287 L 356.59346,618.69054 L 358.05749,620.82321 L 359.04787,620.82321 L 359.04787,621.88954 L 358.05749,622.43455 L 356.59346,622.97957 L 354.65576,624.0459 L 351.72769,626.72357 L 347.83077,626.72357 L 344.90269,626.72357 L 342.46981,625.65724 L 341.00577,625.65724 L 338.57289,626.17856 L 338.09923,626.17856 L 338.57289,628.33492 L 339.54173,629.40125 L 341.00577,630.49128 L 341.99615,631.55761 L 342.965,633.16895 L 344.42903,635.30162 L 346.86192,636.91296 L 349.2948,642.26831 L 354.16057,650.32504 L 356.1198,653.00272 L 356.1198,657.83675 L 355.62461,663.1921 L 355.62461,665.32477 L 358.05749,668.00244 L 361.95442,672.29147 L 366.84172,677.1255 L 376.0996,682.48085 L 385.33595,686.76988 L 393.12979,688.38122 L 395.08902,687.8599 L 398.01709,687.8599 L 398.01709,690.53758 L 398.49075,692.14892 L 399.48113,694.8266 L 400.94516,699.11562 L 400.94516,702.33831 L 401.69871,703.97335 L 402.88286,701.24829 L 409.21267,692.67024 L 413.60478,688.38122 L 415.564,688.02578 L 416.53285,685.70354 L 417.97536,684.63721 L 416.53285,680.34819 L 415.54247,676.05917 L 413.10959,670.70382 L 413.10959,665.32477 L 414.57363,656.74672 L 416.03766,649.23501 L 418.96574,642.81333 L 420.90343,641.747 L 421.87228,640.13565 L 423.48703,640.13565 L 423.33632,639.59064 L 420.90343,634.23528 L 417.5017,626.72357 L 415.06881,620.82321 L 413.10959,618.69054 L 413.10959,617.0792 L 413.10959,615.46785 L 411.64555,613.31149 L 411.17189,612.24516 L 412.63593,610.63382 L 415.06881,607.43482 L 417.00651,603.1458 L 418.47055,600.44443 L 419.4394,595.63409 L 418.47055,592.4114 L 417.97536,591.34507 L 417.97536,589.73372 L 417.97536,588.66739 L 417.00651,588.12238 L 414.57363,588.12238 L 413.10959,587.05605 L 411.64555,586.51103 L 411.64555,585.4447 L 412.63593,583.83336 L 414.07844,581.15568 L 414.83199,579.30737 z "
       id="path2259" />
    <path
       style="fill: rgb(255, 238, 170); fill-opacity: 1; fill-rule: evenodd; stroke: black; stroke-width: 0.542092; stroke-linecap: butt; stroke-linejoin: miter; stroke-opacity: 1;"
       d="M 414.83199,579.30737 L 414.07844,581.15568 L 412.63593,583.83336 L 411.64555,585.4447 L 411.64555,586.51103 L 413.10959,587.05605 L 414.57363,588.12238 L 417.00651,588.12238 L 417.97536,588.66739 L 417.97536,589.73372 L 417.97536,591.34507 L 418.47055,592.4114 L 419.4394,595.63409 L 418.47055,600.44443 L 417.00651,603.1458 L 415.06881,607.43482 L 412.63593,610.63382 L 411.17189,612.24516 L 411.64555,613.31149 L 413.10959,615.46785 L 413.10959,617.0792 L 413.10959,618.69054 L 415.06881,620.82321 L 417.5017,626.72357 L 420.90343,634.23528 L 423.33632,639.59064 L 423.48703,640.13565 L 424.3267,640.13565 L 426.75958,642.26831 L 431.13016,645.491 L 434.05823,645.491 L 437.95516,646.03602 L 440.12968,646.32037 L 445.749,640.13565 L 449.17226,635.30162 L 451.60515,632.07893 L 452.07881,629.40125 L 451.10996,626.72357 L 451.10996,625.65724 L 451.10996,623.50088 L 451.10996,622.43455 L 453.54284,619.75687 C 453.54284,619.75687 454.16109,619.6255 454.77005,619.02229 C 455.07453,618.72069 455.38136,618.29707 455.60972,617.719 C 455.65057,617.6156 455.63877,617.42999 455.67431,617.31616 L 452.07881,613.85651 L 446.24419,606.88981 L 441.85208,597.76675 L 436.98631,586.51103 L 436.01746,580.08935 L 436.49112,570.96629 L 438.45035,561.84324 L 442.34727,553.71542 L 433.08939,553.26519 L 428.69728,553.26519 L 428.30974,553.05193 L 428.69728,554.33152 L 429.19246,556.48788 L 429.68765,559.71057 L 429.19246,563.99959 L 428.22362,566.13226 L 427.23324,568.28862 L 423.33632,572.03262 L 421.39862,573.09895 L 417.5017,576.86666 L 414.83199,579.30737 z "
       id="path2254" />
    <path
       style="fill: rgb(0, 204, 255); fill-opacity: 1; fill-rule: evenodd; stroke: black; stroke-width: 0.542092; stroke-linecap: butt; stroke-linejoin: miter; stroke-opacity: 1;"
       d="M 354.33281,650.562 L 348.32596,649.78003 L 346.36673,649.78003 L 344.42903,651.39137 L 342.46981,652.95532 L 342.46981,654.06905 L 341.00577,656.22541 L 338.09923,658.35807 L 335.64481,659.96941 L 335.17115,662.12577 L 334.67596,664.25844 L 331.27423,666.4148 L 328.84135,671.22513 L 328.84135,674.99284 L 329.81019,677.67051 L 332.24308,678.73685 L 333.70712,679.28186 L 335.17115,680.34819 L 337.10885,681.95954 L 338.09923,685.18223 L 338.09923,691.0589 L 336.63519,698.57061 L 332.24308,701.7933 L 325.91327,703.92596 L 322.9852,705.53731 L 322.49001,708.76 L 319.58347,711.43767 L 318.11943,716.27171 L 314.69617,722.17208 L 307.8927,727.52743 L 300.65864,731.36622 L 302.03655,732.88278 L 303.99578,733.4278 L 309.35674,734.49413 L 317.15058,736.65049 L 325.91327,737.71682 L 333.70712,739.87318 L 336.14,742.00584 L 337.10885,743.61718 L 337.10885,746.29486 L 338.09923,748.45122 L 339.54173,754.32789 L 341.50096,757.02926 L 345.89307,760.22826 L 351.25403,765.06229 L 359.04787,770.41764 L 361.95442,773.09532 L 362.44961,775.25168 L 361.95442,778.99569 L 361.95442,786.27044 L 366.34653,783.28471 L 369.74826,781.67336 L 372.18115,781.67336 L 373.64518,784.89605 L 375.60441,787.57373 L 377.26221,788.94811 L 378.03729,785.96239 L 378.03729,783.82972 L 378.03729,782.76339 L 377.06844,781.67336 L 375.60441,779.5407 L 375.60441,777.92936 L 377.5421,774.18535 L 384.3671,770.41764 L 388.75921,767.73997 L 391.68728,766.12862 L 394.59383,766.12862 L 399.95479,763.45095 L 403.85171,759.70694 L 403.85171,757.55058 L 403.37805,755.41792 L 401.41882,753.26156 L 398.49075,750.58388 L 394.12017,748.97254 L 386.79998,748.45122 L 384.3671,746.29486 L 383.89344,742.55085 L 387.79036,731.27144 L 397.02671,714.66036 L 401.69871,703.97335 L 400.94516,702.33831 L 400.94516,699.11562 L 399.48113,694.8266 L 398.49075,692.14892 L 398.01709,690.53758 L 398.01709,687.8599 L 395.08902,687.8599 L 393.12979,688.38122 L 385.33595,686.76988 L 376.0996,682.48085 L 366.84172,677.1255 L 361.95442,672.29147 L 358.05749,668.00244 L 355.62461,665.32477 L 355.62461,663.1921 L 356.1198,657.83675 L 356.1198,653.00272 L 354.33281,650.562 z "
       id="path2264" />
    <path
       style="fill: rgb(255, 204, 0); fill-opacity: 1; fill-rule: evenodd; stroke: black; stroke-width: 0.542092; stroke-linecap: butt; stroke-linejoin: miter; stroke-opacity: 1;"
       d="M 315.42818,627.52925 L 316.1602,627.7899 L 318.11943,631.01259 L 318.11943,632.07893 L 320.05713,634.23528 L 323.48039,635.30162 L 323.95405,635.84663 L 326.88212,636.91296 L 328.84135,638.52431 L 332.73827,641.20198 L 337.10885,644.42467 L 340.53211,647.10235 L 342.46981,649.78003 L 342.46981,652.95532 L 344.42903,651.39137 L 346.36673,649.78003 L 348.32596,649.78003 L 354.33281,650.562 L 354.16057,650.32504 L 349.2948,642.26831 L 346.86192,636.91296 L 344.42903,635.30162 L 342.965,633.16895 L 341.99615,631.55761 L 341.00577,630.49128 L 339.54173,629.40125 L 338.57289,628.33492 L 338.09923,626.17856 L 338.57289,626.17856 L 341.00577,625.65724 L 342.46981,625.65724 L 344.90269,626.72357 L 347.83077,626.72357 L 351.72769,626.72357 L 354.65576,624.0459 L 356.59346,622.97957 L 358.05749,622.43455 L 359.04787,621.88954 L 359.04787,620.82321 L 358.05749,620.82321 L 356.59346,618.69054 L 355.62461,616.01287 L 355.62461,609.02247 L 355.62461,605.82348 L 358.05749,601.53446 L 362.94479,595.63409 L 370.24345,592.4114 L 373.64518,589.18871 L 376.0996,587.05605 L 376.42255,587.05605 L 377.5421,584.37837 L 378.53248,582.76703 L 378.53248,579.54434 L 378.53248,576.86666 L 377.06844,575.25531 L 375.10922,575.25531 L 372.18115,573.09895 L 369.2746,572.57764 L 365.85134,569.89996 L 363.91364,567.19859 L 362.94479,567.19859 L 363.91364,565.61094 L 366.84172,565.06593 L 371.2123,562.90957 L 373.17152,560.23189 L 374.63556,559.16556 L 375.10922,557.0329 L 376.57326,554.87654 L 376.57326,552.19886 L 377.5421,549.52118 L 376.57326,546.84351 L 375.60441,545.75348 L 371.2123,546.29849 L 368.77941,546.84351 L 365.85134,547.90984 L 362.44961,550.58752 L 360.49038,549.52118 L 360.01672,547.90984 L 357.58384,545.75348 L 351.72769,545.75348 L 347.83077,547.90984 L 344.90269,550.0425 L 342.965,552.19886 L 342.46981,555.42155 L 341.00577,555.42155 L 339.54173,555.42155 L 339.06807,553.26519 L 335.17115,552.19886 L 331.27423,551.65385 L 328.34616,552.74387 L 326.88212,554.33152 L 324.94442,553.26519 L 324.94442,552.74387 L 322.49001,551.65385 L 322.01635,550.58752 L 318.59309,546.29849 L 316.65539,545.23216 L 314.69617,544.14214 L 312.75847,544.68715 L 308.36636,547.36483 L 308.04341,547.57809 L 309.35674,548.45485 L 310.32559,548.97617 L 311.29443,550.58752 L 312.26328,551.65385 L 313.72732,555.42155 L 314.69617,558.09923 L 316.1602,561.32192 L 316.65539,564.52091 L 317.15058,567.19859 L 318.11943,571.48761 L 322.01635,577.38798 L 324.44924,581.677 L 327.37731,585.4447 L 328.34616,587.57736 L 328.34616,591.86639 L 327.85097,595.63409 L 326.88212,596.70042 L 323.48039,602.05577 L 319.58347,606.88981 L 319.08828,610.63382 L 317.15058,613.85651 L 317.15058,616.53418 L 317.15058,620.30189 L 316.1602,624.59091 L 315.68654,626.72357 L 315.42818,627.52925 z "
       id="path2274" />
    <path
       style="fill: rgb(175, 221, 233); fill-opacity: 1; fill-rule: evenodd; stroke: black; stroke-width: 0.542092; stroke-linecap: butt; stroke-linejoin: miter; stroke-opacity: 1;"
       d="M 315.42818,627.52925 L 315.68654,626.72357 L 316.1602,624.59091 L 317.15058,620.30189 L 317.15058,616.53418 L 317.15058,613.85651 L 319.08828,610.63382 L 319.58347,606.88981 L 323.48039,602.05577 L 326.88212,596.70042 L 327.85097,595.63409 L 328.34616,591.86639 L 328.34616,587.57736 L 327.37731,585.4447 L 324.44924,581.677 L 322.01635,577.38798 L 318.11943,571.48761 L 317.15058,567.19859 L 316.65539,564.52091 L 316.1602,561.32192 L 314.69617,558.09923 L 313.72732,555.42155 L 312.26328,551.65385 L 311.29443,550.58752 L 310.32559,548.97617 L 309.35674,548.45485 L 308.04341,547.57809 L 303.99578,550.0425 L 299.10848,550.0425 L 293.74752,550.58752 L 289.37694,550.0425 L 285.95368,548.97617 L 282.05676,548.97617 L 279.15021,549.52118 L 278.15983,551.65385 L 274.7581,553.26519 L 272.32522,553.81021 L 271.83003,555.42155 L 270.86118,555.42155 L 269.89233,554.33152 L 268.42829,554.87654 L 267.45945,555.94287 L 266.46907,557.55421 L 265.99541,556.48788 L 264.03618,555.42155 L 263.56252,553.81021 L 263.41181,553.69172 L 263.06734,555.94287 L 260.63445,561.32192 L 258.67522,568.80993 L 257.21119,588.66739 L 255.27349,600.98944 L 254.30464,607.95614 L 254.7783,614.92284 L 256.24234,621.88954 L 258.20157,624.59091 L 260.63445,627.26859 L 261.6033,631.55761 L 261.34494,635.3964 L 262.09849,635.30162 L 265.00503,634.23528 L 265.50022,633.16895 L 267.45945,631.01259 L 269.39714,629.94626 L 272.79887,629.40125 L 274.26291,630.49128 L 276.71733,633.16895 L 279.15021,633.16895 L 281.08791,633.16895 L 283.52079,631.55761 L 284.51117,629.40125 L 284.51117,627.7899 L 284.51117,624.59091 L 286.44887,620.82321 L 287.41771,618.14553 L 290.34579,618.14553 L 292.30501,618.14553 L 294.24271,618.69054 L 297.64444,619.75687 L 302.53174,621.36822 L 303.99578,622.43455 L 308.86155,626.17856 L 313.25366,627.26859 L 314.69617,627.26859 L 315.42818,627.52925 z "
       id="path2269" />
    <path
       style="fill: rgb(128, 255, 230); fill-opacity: 1; fill-rule: evenodd; stroke: black; stroke-width: 0.542092; stroke-linecap: butt; stroke-linejoin: miter; stroke-opacity: 1;"
       d="M 422.9375,544.59375 C 423.528,544.37373 424.04704,544.05226 424.625,543.8125 L 423.34375,544.15625 L 422.9375,544.59375 z "
       id="path2116" />
    <path
       style="fill: rgb(128, 255, 230); fill-opacity: 1; fill-rule: evenodd; stroke: black; stroke-width: 0.542092; stroke-linecap: butt; stroke-linejoin: miter; stroke-opacity: 1;"
       d="M 393.625,522.1875 L 392.15625,523.78125 L 392.15625,525.90625 L 389.71875,528.59375 L 387.78125,532.875 L 385.34375,533.96875 L 382.4375,534.5 L 379.5,538.25 L 378.03125,540.40625 L 377.90625,541.15625 L 377.53125,543.625 L 375.59375,545.75 L 376.5625,546.84375 L 377.53125,549.53125 L 376.5625,552.1875 L 376.5625,554.875 L 375.09375,557.03125 L 374.625,559.15625 L 373.15625,560.21875 L 371.21875,562.90625 L 366.84375,565.0625 L 363.90625,565.625 L 362.9375,567.1875 L 363.90625,567.1875 L 365.84375,569.90625 L 369.28125,572.5625 L 372.1875,573.09375 L 375.09375,575.25 L 377.0625,575.25 L 378.53125,576.875 L 378.53125,579.53125 L 378.53125,582.78125 L 377.53125,584.375 L 376.4375,587.0625 L 378.53125,587.0625 L 381.4375,587.0625 L 386.3125,585.4375 L 388.75,585.4375 L 391.6875,586.5 L 394.59375,588.125 L 398.03125,590.25 L 399.46875,591.875 L 401.40625,592.40625 L 403.375,592.40625 L 403.84375,590.25 L 405.8125,586.5 L 407.75,582.78125 L 409.21875,581.6875 L 413.125,580.09375 L 414.5625,579.53125 L 417.5,576.875 L 421.40625,573.09375 L 423.34375,572.03125 L 427.21875,568.28125 L 428.21875,566.125 L 429.1875,564 L 429.6875,559.71875 L 429.1875,556.5 L 428.6875,554.34375 L 428.3125,553.0625 L 426.75,552.1875 L 426.75,549.53125 L 426.75,544.15625 L 426.75,543.46875 L 425.28125,543.625 L 424.625,543.8125 C 424.04704,544.05226 423.528,544.37373 422.9375,544.59375 L 422.375,545.21875 L 419.9375,545.75 L 419.78125,545.5 L 418.96875,544.15625 L 417.5,542.5625 L 413.59375,537.71875 L 409.71875,532.375 L 409.71875,530.75 L 407.28125,530.21875 L 404.34375,530.21875 L 401.40625,529.15625 L 400.4375,529.15625 L 397.53125,527.53125 L 396.0625,525.40625 L 395.59375,523.78125 L 396.0625,522.6875 L 394.59375,522.1875 L 393.625,522.1875 z "
       id="path2114" />
    <path
       style="fill: rgb(85, 153, 255); fill-opacity: 1; fill-rule: evenodd; stroke: black; stroke-width: 0.542092; stroke-linecap: butt; stroke-linejoin: miter; stroke-opacity: 1;"
       d="M 418.55667,508.76363 L 417.97536,509.82996 L 416.53285,514.11898 L 414.57363,516.27534 L 413.10959,517.34167 L 410.18152,517.34167 L 408.73901,518.40801 L 405.81093,519.49803 L 403.85171,519.49803 L 401.41882,520.01935 L 399.48113,522.69703 L 396.55305,523.78705 L 395.82104,524.59273 L 396.05786,525.3984 L 397.5219,527.53106 L 400.44998,529.14241 L 401.41882,529.14241 L 404.3469,530.20874 L 407.27497,530.20874 L 409.70786,530.75375 L 409.70786,532.3651 L 413.60478,537.72045 L 417.5017,542.55449 L 418.96574,544.14214 L 419.93458,545.75348 L 422.36747,545.23216 L 423.33632,544.14214 L 425.29554,543.62082 L 426.75958,543.45494 L 426.75958,539.85311 L 429.19246,531.27507 L 430.6565,524.85339 L 432.12054,518.40801 L 433.00327,514.90096 L 427.72843,514.11898 L 423.33632,510.91999 L 419.4394,508.76363 L 418.55667,508.76363 z "
       id="path2284" />
    <path
       style="fill: rgb(128, 179, 255); fill-opacity: 1; fill-rule: evenodd; stroke: black; stroke-width: 0.542092; stroke-linecap: butt; stroke-linejoin: miter; stroke-opacity: 1;"
       d="M 318.89451,546.67763 L 319.58347,543.62082 L 320.05713,540.39813 L 320.05713,538.26546 L 322.01635,536.10911 L 322.49001,531.82008 L 321.0475,528.07608 L 320.05713,523.24204 L 318.59309,518.40801 L 317.62424,515.73033 L 317.15058,513.05265 L 315.19136,509.82996 L 314.22251,508.21861 L 313.72732,505.01962 L 312.26328,501.25192 L 312.26328,497.50791 L 312.26328,495.89656 L 311.29443,491.60754 L 311.29443,486.77351 L 308.86155,483.57451 L 307.65587,482.62666 L 300.09886,487.31852 L 293.27386,487.86353 L 286.44887,489.45118 L 284.01598,491.60754 L 284.01598,493.7639 L 285.48002,496.44158 L 285.48002,499.64057 L 284.98483,503.40827 L 282.05676,506.08595 L 275.72695,509.30864 L 272.32522,512.50764 L 271.83003,515.20901 L 270.36599,520.01935 L 267.45945,523.78705 L 264.03618,527.53106 L 257.70638,530.20874 L 250.40772,532.88642 L 247.97484,535.04277 L 247.97484,537.17544 L 248.94368,539.85311 L 252.34542,542.00947 L 258.67522,542.55449 L 262.09849,543.62082 L 263.56252,545.23216 L 263.56252,548.97617 L 263.56252,552.74387 L 263.41181,553.69172 L 263.56252,553.81021 L 264.03618,555.42155 L 265.99541,556.48788 L 266.46907,557.55421 L 267.45945,555.94287 L 268.42829,554.87654 L 269.89233,554.33152 L 270.86118,555.42155 L 271.83003,555.42155 L 272.32522,553.81021 L 274.7581,553.26519 L 278.15983,551.65385 L 279.15021,549.52118 L 282.05676,548.97617 L 285.95368,548.97617 L 289.37694,550.0425 L 293.74752,550.58752 L 299.10848,550.0425 L 303.99578,550.0425 L 308.36636,547.36483 L 312.75847,544.68715 L 314.69617,544.14214 L 316.65539,545.23216 L 318.59309,546.29849 L 318.89451,546.67763 z "
       id="path2289" />
    <path
       style="fill: red; fill-opacity: 1; fill-rule: evenodd; stroke: black; stroke-width: 0.542092; stroke-linecap: butt; stroke-linejoin: miter; stroke-opacity: 1;"
       d="M 425.18789,495.77808 L 421.87228,498.05292 L 418.96574,499.64057 L 414.07844,501.25192 L 408.73901,502.86326 L 402.88286,506.08595 L 400.44998,507.6973 L 400.44998,510.37498 L 402.38767,514.11898 L 402.88286,515.20901 L 402.88286,516.27534 L 403.85171,518.40801 L 404.02395,519.49803 L 405.81093,519.49803 L 408.73901,518.40801 L 410.18152,517.34167 L 413.10959,517.34167 L 414.57363,516.27534 L 416.53285,514.11898 L 417.97536,509.82996 L 418.55667,508.76363 L 416.53285,508.76363 L 414.57363,505.01962 L 416.53285,503.40827 L 418.96574,503.40827 L 419.93458,503.92959 L 420.90343,506.08595 L 423.33632,506.08595 L 423.83151,504.47461 L 424.80035,502.86326 L 426.75958,501.25192 L 428.22362,499.11925 L 425.79073,496.44158 L 425.18789,495.77808 z "
       id="path2294" />
    <path
       style="fill: rgb(85, 255, 85); fill-opacity: 1; fill-rule: evenodd; stroke: black; stroke-width: 0.542092; stroke-linecap: butt; stroke-linejoin: miter; stroke-opacity: 1;"
       d="M 415.58553,471.84487 L 413.60478,471.22876 L 410.18152,472.2951 L 407.27497,472.84011 L 405.81093,474.45145 L 400.94516,484.09583 L 398.49075,487.86353 L 396.55305,494.28522 L 395.08902,497.50791 L 395.08902,499.11925 L 396.55305,499.64057 L 397.02671,499.11925 L 399.48113,498.57424 L 400.44998,498.05292 L 400.44998,500.7306 L 401.41882,502.34194 L 402.88286,504.47461 L 403.85171,505.54094 L 408.73901,502.86326 L 414.07844,501.25192 L 418.96574,499.64057 L 421.87228,498.05292 L 425.18789,495.77808 L 420.90343,491.06253 L 417.5017,489.45118 L 414.57363,485.16216 L 412.63593,481.41815 L 412.14074,478.74048 L 412.14074,476.58412 L 414.07844,473.90644 L 415.58553,471.84487 z "
       id="path2299" />
    <path
       style="fill: rgb(230, 230, 230); fill-opacity: 1; fill-rule: evenodd; stroke: black; stroke-width: 0.542092; stroke-linecap: butt; stroke-linejoin: miter; stroke-opacity: 1;"
       d="M 386.19715,533.5973 L 387.79036,532.88642 L 389.72806,528.59739 L 392.16094,525.91972 L 392.16094,523.78705 L 393.62498,522.17571 L 394.59383,522.17571 L 396.05786,522.69703 L 395.58421,523.78705 L 395.82104,524.59273 L 396.55305,523.78705 L 399.48113,522.69703 L 401.41882,520.01935 L 403.85171,519.49803 L 404.02395,519.49803 L 403.85171,518.40801 L 402.88286,516.27534 L 402.88286,515.20901 L 402.38767,514.11898 L 400.44998,510.37498 L 400.44998,507.6973 L 402.88286,506.08595 L 403.85171,505.54094 L 402.88286,504.47461 L 401.41882,502.34194 L 400.44998,500.7306 L 400.44998,498.05292 L 399.48113,498.57424 L 397.02671,499.11925 L 396.55305,499.64057 L 395.08902,499.11925 L 395.08902,497.50791 L 396.55305,494.28522 L 397.37119,491.56015 L 396.55305,491.60754 L 393.12979,491.06253 L 391.1921,490.54121 L 389.23287,489.9962 L 387.29517,489.45118 L 384.86229,488.92986 L 380.47018,491.06253 L 375.60441,494.28522 L 370.24345,496.44158 L 366.84172,498.05292 L 363.91364,499.11925 L 363.91364,500.7306 L 362.94479,502.34194 L 361.63147,502.91065 L 362.44961,504.47461 L 364.3873,507.15228 L 365.37768,508.76363 L 366.84172,509.30864 L 368.28422,510.91999 L 369.74826,511.98632 L 372.18115,513.59767 L 374.14037,514.11898 L 377.5421,516.79666 L 379.50133,518.40801 L 379.99652,519.49803 L 381.43903,522.17571 L 383.39825,527.53106 L 385.83114,531.82008 L 386.19715,533.5973 z "
       id="path2309" />
    <path
       style="fill: rgb(255, 246, 213); fill-opacity: 1; fill-rule: evenodd; stroke: black; stroke-width: 0.542092; stroke-linecap: butt; stroke-linejoin: miter; stroke-opacity: 1;"
       d="M 322.5,466.15625 L 321.53125,466.40625 L 317.15625,469.09375 L 313.25,475 L 307.90625,482.5 L 307.65625,482.625 L 308.875,483.5625 L 311.28125,486.78125 L 311.28125,491.59375 L 312.25,495.90625 L 312.25,497.5 L 312.25,501.25 L 313.71875,505.03125 L 314.21875,508.21875 L 315.1875,509.84375 L 317.15625,513.0625 L 317.625,515.71875 L 318.59375,518.40625 L 320.0625,523.25 L 321.0625,528.0625 L 322.5,531.8125 L 322.03125,536.09375 L 320.0625,538.25 L 320.0625,540.40625 L 319.59375,543.625 L 318.90625,546.6875 L 322.03125,550.59375 L 322.5,551.65625 L 324.9375,552.75 L 324.9375,553.25 L 326.875,554.34375 L 328.34375,552.75 L 331.28125,551.65625 L 335.15625,552.1875 L 339.0625,553.25 L 339.53125,555.40625 L 341,555.40625 L 342.46875,555.40625 L 342.96875,552.1875 L 344.90625,550.03125 L 347.84375,547.90625 L 351.71875,545.75 L 357.59375,545.75 L 360.03125,547.90625 L 360.5,549.53125 L 362.4375,550.59375 L 365.84375,547.90625 L 368.78125,546.84375 L 371.21875,546.3125 L 375.59375,545.75 L 377.53125,543.625 L 377.90625,541.15625 L 378.03125,540.40625 L 379.5,538.25 L 382.4375,534.5 L 385.34375,533.96875 L 386.1875,533.59375 L 385.84375,531.8125 L 383.40625,527.53125 L 381.4375,522.1875 L 380,519.5 L 379.5,518.40625 L 377.53125,516.78125 L 374.125,514.125 L 372.1875,513.59375 L 369.75,512 L 368.28125,510.90625 L 366.84375,509.3125 L 365.375,508.75 L 364.375,507.15625 L 362.4375,504.46875 L 361.625,502.90625 L 360.5,503.40625 L 359.0625,505.53125 L 356.375,508.125 L 355.15625,509.3125 L 352.6875,511.4375 L 350.75,511.4375 L 347.84375,508.75 L 345.40625,506.625 L 343.4375,503.9375 L 339.53125,498.5625 L 336.125,493.21875 L 334.1875,489.4375 L 330.78125,482.5 L 330.3125,480.34375 L 327.375,480.34375 L 324.9375,478.1875 L 322.5,477.125 L 322.5,475 L 322.5,471.78125 L 322.5,467.5 L 322.5,466.15625 z "
       id="path2106" />
    <path
       style="opacity:1;color:#000000;fill:none;fill-opacity:0.75;fill-rule:evenodd;stroke:#000000;stroke-width:2.16837001;stroke-linecap:butt;stroke-linejoin:miter;marker:none;stroke-miterlimit:4;stroke-dasharray:none;stroke-dashoffset:0;stroke-opacity:1;visibility:visible;display:inline;overflow:visible"
       d="M 502.31307,510.65364 L 471.03538,505.32496"
       id="path2082"
       inkscape:transform-center-y="-160"
       inkscape:transform-center-x="51.428571" />
    <path
       style="overflow: visible; marker: none; opacity: 1; color: black; fill: none; fill-opacity: 0.75; fill-rule: evenodd; stroke: black; stroke-width: 2.16837; stroke-linecap: butt; stroke-linejoin: miter; stroke-miterlimit: 4; stroke-dasharray: none; stroke-dashoffset: 0pt; stroke-opacity: 1; visibility: visible; display: inline;"
       d="M 457.99954,579.86636 L 431.81912,604.13132"
       id="path2084" />
    <path
       style="overflow: visible; marker: none; opacity: 1; color: black; fill: none; fill-opacity: 0.75; fill-rule: evenodd; stroke: black; stroke-width: 2.16837; stroke-linecap: butt; stroke-linejoin: miter; stroke-miterlimit: 4; stroke-dasharray: none; stroke-dashoffset: 0pt; stroke-opacity: 1; visibility: visible; display: inline;"
       d="M 482.80205,619.29693 L 459.37746,635.97909"
       id="path2086" />
    <path
       style="overflow: visible; marker: none; opacity: 1; color: black; fill: none; fill-opacity: 0.75; fill-rule: evenodd; stroke: black; stroke-width: 2.16837; stroke-linecap: butt; stroke-linejoin: miter; stroke-miterlimit: 4; stroke-dasharray: none; stroke-dashoffset: 0pt; stroke-opacity: 1; visibility: visible; display: inline;"
       d="M 495.20331,663.27717 L 463.51121,669.34341"
       id="path2088" />
    <path
       sodipodi:type="arc"
       style="opacity: 1; fill: none; fill-opacity: 1; stroke: black; stroke-width: 5.81441; stroke-miterlimit: 4; stroke-dasharray: none; stroke-opacity: 1;"
       id="path2177"
       sodipodi:cx="45"
       sodipodi:cy="338.79074"
       sodipodi:rx="82.14286"
       sodipodi:ry="90.714287"
       d="M 127.14286 338.79074 A 82.14286 90.714287 0 1 1  -37.14286,338.79074 A 82.14286 90.714287 0 1 1  127.14286 338.79074 z"
       transform="matrix(0.582752, 0, 0, 0.456823, 379.245, 352.177)" />
    <path
       style="overflow: visible; marker: none; opacity: 1; color: black; fill: none; fill-opacity: 0.75; fill-rule: evenodd; stroke: black; stroke-width: 3; stroke-linecap: butt; stroke-linejoin: miter; stroke-miterlimit: 4; stroke-dasharray: none; stroke-dashoffset: 0pt; stroke-opacity: 1; visibility: visible; display: inline;"
       d="M 359.20034,519.30721 L 226.87109,306.40708"
       id="path2210"
       sodipodi:nodetypes="cc" />
    <path
       style="overflow: visible; marker: none; opacity: 1; color: black; fill: none; fill-opacity: 0.75; fill-rule: evenodd; stroke: black; stroke-width: 3; stroke-linecap: butt; stroke-linejoin: miter; stroke-miterlimit: 4; stroke-dasharray: none; stroke-dashoffset: 0pt; stroke-opacity: 1; visibility: visible; display: inline;"
       d="M 445.57954,530.00381 L 553.7272,330.54587"
       id="path2212"
       sodipodi:nodetypes="cc" />
    <path
       style="fill: rgb(128, 229, 255); fill-opacity: 1; fill-rule: evenodd; stroke: black; stroke-width: 2.27023; stroke-linecap: butt; stroke-linejoin: miter; stroke-opacity: 1;"
       d="M 290.22879,77.901951 C 280.15847,84.510415 270.74404,92.039249 262.1791,100.35658 C 253.61415,108.67393 245.87732,117.74476 239.07208,127.52393 C 232.26684,137.30311 226.4403,147.71692 221.64914,158.71094 C 216.85798,169.70495 213.05086,181.26266 210.5281,193.22455 C 208.00536,205.18642 206.69753,217.55033 206.69753,230.23311 C 206.69753,231.46804 207.04325,232.60779 207.06823,233.83695 L 216.70645,223.30267 L 222.39053,213.87727 L 232.15233,209.16457 L 235.9829,201.9569 L 235.9829,194.88786 L 247.47463,190.17515 L 260.94343,182.96749 L 282.19694,173.40347 L 301.34982,159.12676 L 318.77276,149.70135 L 328.41099,151.9191 L 336.07213,154.41405 L 343.85685,156.77041 L 351.51801,159.12676 L 364.98681,161.48312 L 368.19955,161.3445 L 372.64796,144.85004 L 382.40975,128.21698 L 401.56263,85.386828 L 407.37028,78.317775 L 418.862,75.82282 L 432.45437,71.110101 L 440.23908,73.88229 L 442.09259,71.110101 L 438.26202,68.892358 L 424.66965,61.684704 L 413.17792,52.120686 L 415.03142,49.764331 L 429.98303,49.764331 C 418.9367,47.813252 407.62531,46.437728 396.00212,46.437728 C 382.94174,46.437728 370.13795,47.730358 357.81992,50.180156 C 334.06673,56.136217 311.14336,65.149982 290.22879,77.901951 z "
       id="path2121"
       sodipodi:nodetypes="csssssccccccccccccccccccccccccccccccsss" />
    <path
       style="fill: rgb(204, 255, 170); fill-opacity: 1; fill-rule: evenodd; stroke: black; stroke-width: 2.27023; stroke-linecap: butt; stroke-linejoin: miter; stroke-opacity: 1;"
       d="M 485.71173,386.72254 C 491.08399,383.88836 496.7328,381.43793 501.77543,378.12879 C 511.84576,371.52032 521.26018,363.99148 529.82514,355.67415 C 538.39008,347.35683 546.12692,338.286 552.93216,328.50681 C 559.73739,318.72763 565.56394,308.31382 570.3551,297.31981 C 575.14626,286.3258 578.95338,274.76808 581.47612,262.80621 C 583.99886,250.84432 585.3067,238.48037 585.3067,225.79763 C 585.3067,213.11485 583.99886,200.75094 581.47612,188.78906 C 581.35564,188.21778 581.1078,187.69509 580.98185,187.12576 L 574.4328,185.73966 L 568.62516,188.23463 L 557.00986,202.37274 L 549.22515,226.21346 L 547.37164,245.20288 L 535.75635,245.20288 L 528.0952,257.12324 L 518.45698,264.3309 L 510.42512,262.94482 L 506.96524,278.46901 L 501.15759,307.02244 L 495.34995,335.57588 L 485.71173,373.55471 L 485.71173,386.72254 z "
       id="path2123" />
    <path
       style="fill: rgb(128, 255, 230); fill-opacity: 1; fill-rule: evenodd; stroke: black; stroke-width: 2.27023; stroke-linecap: butt; stroke-linejoin: miter; stroke-opacity: 1;"
       d="M 292.57657,379.37628 C 302.00356,385.37696 311.86238,390.86511 322.35621,395.17769 C 333.67755,399.83033 345.5019,403.40077 357.81992,405.85057 C 370.13795,408.30037 382.94177,409.59302 396.00212,409.59302 C 409.06248,409.59302 421.86627,408.30037 434.1843,405.85057 C 442.51026,404.19471 450.26687,401.32345 458.15629,398.64291 L 454.94356,392.68273 L 449.13591,385.61367 L 433.69003,364.1293 L 418.36773,340.42719 L 418.36773,333.21951 L 408.72951,330.86317 L 397.11422,330.86317 L 385.49892,326.15047 L 381.66835,326.15047 L 370.17662,318.9428 L 364.36897,309.5174 L 362.51547,302.30973 L 364.36897,297.45842 L 358.56133,295.24068 L 354.73076,295.24068 L 348.92311,302.30973 L 348.92311,311.73514 L 339.28488,323.6555 L 331.62373,342.64492 L 321.98551,347.49623 L 310.49378,349.85258 L 298.87849,366.48564 L 293.07084,376.04966 L 292.57657,379.37628 z "
       id="path2125" />
    <path
       style="fill: rgb(85, 153, 255); fill-opacity: 1; fill-rule: evenodd; stroke: black; stroke-width: 2.27023; stroke-linecap: butt; stroke-linejoin: miter; stroke-opacity: 1;"
       d="M 453.31413,235.69932 L 451.01555,240.429 L 445.31166,259.45289 L 437.56462,269.01739 L 431.7756,273.74708 L 420.19759,273.74708 L 414.4937,278.47681 L 402.91566,283.31158 L 395.16863,283.31158 L 385.54863,285.62389 L 377.88672,297.50069 L 366.30868,302.33546 L 363.4142,305.90905 L 364.35062,309.48257 L 370.13965,318.94197 L 381.7177,326.08908 L 385.54863,326.08908 L 397.12667,330.81876 L 408.70467,330.81876 L 418.32467,333.23615 L 418.32467,340.38327 L 433.73365,364.13684 L 449.14263,385.57814 L 454.93165,392.62015 L 458.76258,399.76722 L 479.96059,390.30784 L 488.60674,386.71493 L 485.7496,373.59622 L 495.36956,335.54845 L 501.15858,307.06519 L 506.94761,278.47681 L 510.43804,262.92135 L 489.58058,259.45289 L 472.21355,245.26382 L 456.80457,235.69932 L 453.31413,235.69932 z "
       id="path2127"
       sodipodi:nodetypes="cccccccccccccccccccccccccccccccccccc" />
    <path
       style="fill: red; fill-opacity: 1; fill-rule: evenodd; stroke: black; stroke-width: 2.27023; stroke-linecap: butt; stroke-linejoin: miter; stroke-opacity: 1;"
       d="M 479.53492,178.10212 L 466.42452,188.19213 L 454.93165,195.23412 L 435.60657,202.38125 L 414.4937,209.52833 L 391.33766,223.82251 L 381.7177,230.96963 L 381.7177,242.84644 L 389.3796,259.45289 L 391.33766,264.2877 L 391.33766,269.01739 L 395.16863,278.47681 L 395.84969,283.31158 L 402.91566,283.31158 L 414.4937,278.47681 L 420.19759,273.74708 L 431.7756,273.74708 L 437.56462,269.01739 L 445.31166,259.45289 L 451.01555,240.429 L 453.31413,235.69932 L 445.31166,235.69932 L 437.56462,219.09282 L 445.31166,211.94571 L 454.93165,211.94571 L 458.76258,214.25801 L 462.59355,223.82251 L 472.21355,223.82251 L 474.1716,216.67544 L 478.00253,209.52833 L 485.7496,202.38125 L 491.53863,192.92182 L 481.91863,181.04506 L 479.53492,178.10212 z "
       id="path2129" />
    <path
       style="fill: rgb(85, 255, 85); fill-opacity: 1; fill-rule: evenodd; stroke: black; stroke-width: 2.27023; stroke-linecap: butt; stroke-linejoin: miter; stroke-opacity: 1;"
       d="M 441.56582,71.946719 L 433.73365,69.213984 L 420.19759,73.943722 L 408.70467,76.361105 L 402.91566,83.508176 L 383.67571,126.28568 L 373.97062,142.99725 L 366.30868,171.48056 L 360.5197,185.77475 L 360.5197,192.92182 L 366.30868,195.23412 L 368.1816,192.92182 L 377.88672,190.50444 L 381.7177,188.19213 L 381.7177,200.06893 L 385.54863,207.21601 L 391.33766,216.67544 L 395.16863,221.40512 L 414.4937,209.52833 L 435.60657,202.38125 L 454.93165,195.23412 L 466.42452,188.19213 L 479.53492,178.10212 L 462.59355,157.18637 L 449.14263,150.03925 L 437.56462,131.01537 L 429.90268,114.40887 L 427.94463,102.53211 L 427.94463,92.967601 L 435.60657,81.090792 L 441.56582,71.946719 z "
       id="path2131" />
    <path
       style="fill: rgb(230, 230, 230); fill-opacity: 1; fill-rule: evenodd; stroke: black; stroke-width: 2.27023; stroke-linecap: butt; stroke-linejoin: miter; stroke-opacity: 1;"
       d="M 325.35997,345.84868 L 331.65975,342.69557 L 339.32169,323.67165 L 348.94165,311.7949 L 348.94165,302.33546 L 354.73067,295.18839 L 358.56164,295.18839 L 364.35062,297.50069 L 362.47774,302.33546 L 363.4142,305.90905 L 366.30868,302.33546 L 377.88672,297.50069 L 385.54863,285.62389 L 395.16863,283.31158 L 395.84969,283.31158 L 395.16863,278.47681 L 391.33766,269.01739 L 391.33766,264.2877 L 389.3796,259.45289 L 381.7177,242.84644 L 381.7177,230.96963 L 391.33766,223.82251 L 395.16863,221.40512 L 391.33766,216.67544 L 385.54863,207.21601 L 381.7177,200.06893 L 381.7177,188.19213 L 377.88672,190.50444 L 368.1816,192.92182 L 366.30868,195.23412 L 360.5197,192.92182 L 360.5197,185.77475 L 366.30868,171.48056 L 369.54372,159.39355 L 366.30868,159.60375 L 352.77262,157.18637 L 345.11072,154.87406 L 337.36364,152.45668 L 329.70169,150.03925 L 320.08174,147.72694 L 302.71471,157.18637 L 283.47476,171.48056 L 262.27677,181.04506 L 248.82583,188.19213 L 237.24779,192.92182 L 237.24779,200.06893 L 233.41682,207.21601 L 228.22376,209.73852 L 231.45881,216.67544 L 239.12071,228.55219 L 243.03682,235.69932 L 248.82583,238.1167 L 254.52969,245.26382 L 260.31871,249.99351 L 269.93871,257.14062 L 277.68575,259.45289 L 291.13667,271.32969 L 298.88374,278.47681 L 300.84179,283.31158 L 306.54568,295.18839 L 314.29272,318.94197 L 323.91272,337.96584 L 325.35997,345.84868 z "
       id="path2133" />
    <path
       style="fill: rgb(255, 246, 213); fill-opacity: 1; fill-rule: evenodd; stroke: black; stroke-width: 2.27023; stroke-linecap: butt; stroke-linejoin: miter; stroke-opacity: 1;"
       d="M 207.43893,232.86669 C 207.8447,243.03051 208.4873,253.12957 210.5281,262.80621 C 213.05086,274.76808 216.85798,286.3258 221.64914,297.31981 C 226.4403,308.31382 232.26684,318.72763 239.07208,328.50681 C 245.87732,338.286 253.61415,347.35683 262.1791,355.67415 C 270.74404,363.99148 280.15847,371.52032 290.22879,378.12879 C 290.96487,378.61183 291.83319,378.90306 292.57657,379.37628 L 293.07084,376.04966 L 298.87849,366.48564 L 310.49378,349.85258 L 321.98551,347.49623 L 325.32181,345.83292 L 323.96258,337.93222 L 314.32435,318.9428 L 306.53963,295.24068 L 300.85555,283.32032 L 298.87849,278.46901 L 291.09377,271.26134 L 277.62496,259.47959 L 269.96381,257.12324 L 260.32559,250.05419 L 254.51794,245.20288 L 248.83386,238.13382 L 243.02622,235.63887 L 239.07208,228.5698 L 231.41092,216.64944 L 228.19819,209.719 L 223.74977,211.93674 L 218.06569,221.36215 L 207.43893,232.86669 z "
       id="path2135" />
    <path
       sodipodi:type="arc"
       style="opacity: 1; fill: none; fill-opacity: 1; stroke: black; stroke-width: 1.85118; stroke-miterlimit: 4; stroke-dasharray: none; stroke-opacity: 1;"
       id="path2137"
       sodipodi:cx="45"
       sodipodi:cy="338.79074"
       sodipodi:rx="82.14286"
       sodipodi:ry="90.714287"
       d="M 127.14286 338.79074 A 82.14286 90.714287 0 1 1  -37.14286,338.79074 A 82.14286 90.714287 0 1 1  127.14286 338.79074 z"
       transform="matrix(2.30447, 0, 0, 1.9949, 293.577, -446.799)" />
    <path
       style="opacity:1;color:#000000;fill:none;fill-opacity:0.75;fill-rule:evenodd;stroke:#000000;stroke-width:3.85154009;stroke-linecap:butt;stroke-linejoin:miter;marker:none;stroke-miterlimit:4;stroke-dasharray:none;stroke-dashoffset:0;stroke-opacity:1;visibility:visible;display:inline;overflow:visible"
       d="M 498.90235,182.58053 L 464.96907,203.45429"
       id="path2141"
       sodipodi:nodetypes="cc" />
    <text
       xml:space="preserve"
       style="font-size:48px;font-style:normal;font-variant:normal;font-weight:normal;font-stretch:normal;text-align:center;line-height:100%;writing-mode:lr;text-anchor:middle;fill:#000000;fill-opacity:1;stroke:none;stroke-width:1px;stroke-linecap:butt;stroke-linejoin:miter;stroke-opacity:1;font-family:Tahoma"
       x="384.14249"
       y="1029.3375"
       id="text2228"
       sodipodi:linespacing="100%"><tspan
         sodipodi:role="line"
         id="tspan2230"
         x="384.14249"
         y="1029.3375"
         style="font-size:48px;font-style:normal;font-variant:normal;font-weight:normal;font-stretch:normal;text-align:center;line-height:100%;writing-mode:lr;text-anchor:middle;font-family:Tahoma">32</tspan></text>
    <text
       xml:space="preserve"
       style="font-size:48px;font-style:normal;font-variant:normal;font-weight:normal;font-stretch:normal;text-align:center;line-height:100%;writing-mode:lr;text-anchor:middle;fill:#000000;fill-opacity:1;stroke:none;stroke-width:1px;stroke-linecap:butt;stroke-linejoin:miter;stroke-opacity:1;font-family:Tahoma"
       x="457.21088"
       y="892.58411"
       id="text2232"
       sodipodi:linespacing="100%"><tspan
         sodipodi:role="line"
         id="tspan2236"
         x="457.21088"
         y="892.58411">41</tspan></text>
    <text
       xml:space="preserve"
       style="font-size:48px;font-style:normal;font-variant:normal;font-weight:normal;font-stretch:normal;text-align:center;line-height:100%;writing-mode:lr-tb;text-anchor:middle;fill:#000000;fill-opacity:1;stroke:none;stroke-width:1px;stroke-linecap:butt;stroke-linejoin:miter;stroke-opacity:1;font-family:Tahoma"
       x="376.10419"
       y="846.54095"
       id="text2238"
       sodipodi:linespacing="100%"><tspan
         sodipodi:role="line"
         id="tspan2242"
         x="376.10419"
         y="846.54095">60</tspan></text>
    <text
       xml:space="preserve"
       style="font-size:48px;font-style:normal;font-variant:normal;font-weight:normal;font-stretch:normal;text-align:center;line-height:100%;writing-mode:lr;text-anchor:middle;fill:#000000;fill-opacity:1;stroke:none;stroke-width:1px;stroke-linecap:butt;stroke-linejoin:miter;stroke-opacity:1;font-family:Tahoma"
       x="298.20801"
       y="905.36047"
       id="text2244"
       sodipodi:linespacing="100%"><tspan
         sodipodi:role="line"
         id="tspan2248"
         x="298.20801"
         y="905.36047">42</tspan></text>
    <text
       xml:space="preserve"
       style="font-size:48px;font-style:normal;font-variant:normal;font-weight:normal;font-stretch:normal;text-align:center;line-height:100%;writing-mode:lr;text-anchor:middle;fill:#000000;fill-opacity:1;stroke:none;stroke-width:1px;stroke-linecap:butt;stroke-linejoin:miter;stroke-opacity:1;font-family:Tahoma"
       x="228.2605"
       y="840.18207"
       id="text2250"
       sodipodi:linespacing="100%"><tspan
         sodipodi:role="line"
         id="tspan2254"
         x="228.2605"
         y="840.18207">22</tspan></text>
    <text
       xml:space="preserve"
       style="font-size:48px;font-style:normal;font-variant:normal;font-weight:normal;font-stretch:normal;text-align:center;line-height:100%;writing-mode:lr;text-anchor:middle;fill:#000000;fill-opacity:1;stroke:none;stroke-width:1px;stroke-linecap:butt;stroke-linejoin:miter;stroke-opacity:1;font-family:Tahoma"
       x="291.84918"
       y="787.72137"
       id="text2256"
       sodipodi:linespacing="100%"><tspan
         sodipodi:role="line"
         id="tspan2260"
         x="291.84918"
         y="787.72137">21</tspan></text>
    <text
       xml:space="preserve"
       style="font-size:48px;font-style:normal;font-variant:normal;font-weight:normal;font-stretch:normal;text-align:center;line-height:100%;writing-mode:lr-tb;text-anchor:middle;fill:#000000;fill-opacity:1;stroke:none;stroke-width:1px;stroke-linecap:butt;stroke-linejoin:miter;stroke-opacity:1;font-family:Tahoma"
       x="293.02863"
       y="698.6972"
       id="text2262"
       sodipodi:linespacing="100%"><tspan
         sodipodi:role="line"
         id="tspan2266"
         x="293.02863"
         y="698.6972">12</tspan></text>
    <text
       xml:space="preserve"
       style="font-size:48px;font-style:normal;font-variant:normal;font-weight:normal;font-stretch:normal;text-align:center;line-height:100%;writing-mode:lr;text-anchor:middle;fill:#000000;fill-opacity:1;stroke:none;stroke-width:1px;stroke-linecap:butt;stroke-linejoin:miter;stroke-opacity:1;font-family:Tahoma"
       x="358.61731"
       y="735.26074"
       id="text2268"
       sodipodi:linespacing="100%"><tspan
         sodipodi:role="line"
         id="tspan2272"
         x="358.61731"
         y="735.26074">91</tspan></text>
    <text
       xml:space="preserve"
       style="font-size:48px;font-style:normal;font-variant:normal;font-weight:normal;font-stretch:normal;text-align:center;line-height:100%;writing-mode:lr-tb;text-anchor:middle;fill:#000000;fill-opacity:1;stroke:none;stroke-width:1px;stroke-linecap:butt;stroke-linejoin:miter;stroke-opacity:1;font-family:Tahoma"
       x="425.79568"
       y="746.38873"
       id="text2274"
       sodipodi:linespacing="100%"><tspan
         sodipodi:role="line"
         id="tspan2278"
         x="425.79568"
         y="746.38873">30</tspan></text>
    <text
       xml:space="preserve"
       style="font-size:48px;font-style:normal;font-variant:normal;font-weight:normal;font-stretch:normal;text-align:center;line-height:100%;writing-mode:lr-tb;text-anchor:middle;fill:#000000;fill-opacity:1;stroke:none;stroke-width:1px;stroke-linecap:butt;stroke-linejoin:miter;stroke-opacity:1;font-family:Tahoma"
       x="387.64249"
       y="656.95435"
       id="text2280"
       sodipodi:linespacing="100%"><tspan
         sodipodi:role="line"
         id="tspan2284"
         x="387.64249"
         y="656.95435">31</tspan></text>
    <text
       xml:space="preserve"
       style="font-size:48px;font-style:normal;font-variant:normal;font-weight:normal;font-stretch:normal;text-align:center;line-height:100%;writing-mode:lr;text-anchor:middle;fill:#000000;fill-opacity:1;stroke:none;stroke-width:1px;stroke-linecap:butt;stroke-linejoin:miter;stroke-opacity:1;font-family:Tahoma"
       x="524.40955"
       y="680.80005"
       id="text2286"
       sodipodi:linespacing="100%"><tspan
         sodipodi:role="line"
         id="tspan2290"
         x="524.40955"
         y="680.80005">51</tspan></text>
    <text
       xml:space="preserve"
       style="font-size:48px;font-style:normal;font-variant:normal;font-weight:normal;font-stretch:normal;text-align:center;line-height:100%;writing-mode:lr;text-anchor:middle;fill:#000000;fill-opacity:1;stroke:none;stroke-width:1px;stroke-linecap:butt;stroke-linejoin:miter;stroke-opacity:1;font-family:Tahoma"
       x="511.28156"
       y="631.10858"
       id="text2292"
       sodipodi:linespacing="100%"><tspan
         sodipodi:role="line"
         id="tspan2296"
         x="511.28156"
         y="631.10858">50</tspan></text>
    <text
       xml:space="preserve"
       style="font-size:48px;font-style:normal;font-variant:normal;font-weight:normal;font-stretch:normal;text-align:center;line-height:100%;writing-mode:lr-tb;text-anchor:middle;fill:#000000;fill-opacity:1;stroke:none;stroke-width:1px;stroke-linecap:butt;stroke-linejoin:miter;stroke-opacity:1;font-family:Tahoma"
       x="481.07693"
       y="584.23761"
       id="text2298"
       sodipodi:linespacing="100%"><tspan
         sodipodi:role="line"
         id="tspan2302"
         x="481.07693"
         y="584.23761">40</tspan></text>
    <text
       xml:space="preserve"
       style="font-size:48px;font-style:normal;font-variant:normal;font-weight:normal;font-stretch:normal;text-align:center;line-height:100%;writing-mode:lr-tb;text-anchor:middle;fill:#000000;fill-opacity:1;stroke:none;stroke-width:1px;stroke-linecap:butt;stroke-linejoin:miter;stroke-opacity:1;font-family:Tahoma"
       x="532.76843"
       y="525.87976"
       id="text2304"
       sodipodi:linespacing="100%"><tspan
         sodipodi:role="line"
         id="tspan2308"
         x="532.76843"
         y="525.87976">80</tspan></text>
    <text
       xml:space="preserve"
       style="font-size:38px;font-style:normal;font-variant:normal;font-weight:normal;font-stretch:normal;text-align:center;line-height:100%;writing-mode:lr;text-anchor:middle;fill:#000000;fill-opacity:1;stroke:none;stroke-width:1px;stroke-linecap:butt;stroke-linejoin:miter;stroke-opacity:1;font-family:Tahoma"
       x="397.59106"
       y="578.5965"
       id="text2310"
       sodipodi:linespacing="100%"><tspan
         sodipodi:role="line"
         id="tspan2314"
         x="397.59106"
         y="578.5965">11</tspan></text>
    <text
       xml:space="preserve"
       style="font-size:40px;font-style:normal;font-variant:normal;font-weight:normal;font-stretch:normal;text-align:center;line-height:100%;writing-mode:lr-tb;text-anchor:middle;fill:#000000;fill-opacity:1;stroke:none;stroke-width:1px;stroke-linecap:butt;stroke-linejoin:miter;stroke-opacity:1;font-family:Tahoma"
       x="345.89954"
       y="592.18622"
       id="text2316"
       sodipodi:linespacing="100%"><tspan
         sodipodi:role="line"
         id="tspan2320"
         x="345.89954"
         y="592.18622">61</tspan></text>
    <text
       xml:space="preserve"
       style="font-size:48px;font-style:normal;font-variant:normal;font-weight:normal;font-stretch:normal;text-align:center;line-height:100%;writing-mode:lr;text-anchor:middle;fill:#000000;fill-opacity:1;stroke:none;stroke-width:1px;stroke-linecap:butt;stroke-linejoin:miter;stroke-opacity:1;font-family:Tahoma"
       x="288.66974"
       y="609.6731"
       id="text2322"
       sodipodi:linespacing="100%"><tspan
         sodipodi:role="line"
         id="tspan2326"
         x="288.66974"
         y="609.6731">71</tspan></text>
    <text
       xml:space="preserve"
       style="font-size:48px;font-style:normal;font-variant:normal;font-weight:normal;font-stretch:normal;text-align:center;line-height:100%;writing-mode:lr-tb;text-anchor:middle;fill:#000000;fill-opacity:1;stroke:none;stroke-width:1px;stroke-linecap:butt;stroke-linejoin:miter;stroke-opacity:1;font-family:Tahoma"
       x="293.08002"
       y="540.90497"
       id="text2328"
       sodipodi:linespacing="100%"><tspan
         sodipodi:role="line"
         id="tspan2332"
         x="293.08002"
         y="540.90497">81</tspan></text>
    <text
       xml:space="preserve"
       style="font-size:40px;font-style:normal;font-variant:normal;font-weight:normal;font-stretch:normal;text-align:center;line-height:100%;writing-mode:lr-tb;text-anchor:middle;fill:#000000;fill-opacity:1;stroke:none;stroke-width:1px;stroke-linecap:butt;stroke-linejoin:miter;stroke-opacity:1;font-family:Tahoma"
       x="340.72012"
       y="547.26385"
       id="text2334"
       sodipodi:linespacing="100%"><tspan
         sodipodi:role="line"
         id="tspan2338"
         x="340.72012"
         y="547.26385">90</tspan></text>
    <text
       xml:space="preserve"
       style="font-size:48px;font-style:normal;font-variant:normal;font-weight:normal;font-stretch:normal;text-align:center;line-height:100%;writing-mode:lr-tb;text-anchor:middle;fill:#000000;fill-opacity:1;stroke:none;stroke-width:1px;stroke-linecap:butt;stroke-linejoin:miter;stroke-opacity:1;font-family:Tahoma"
       x="358.61731"
       y="468.18829"
       id="text2340"
       sodipodi:linespacing="100%"><tspan
         sodipodi:role="line"
         id="tspan2344"
         x="358.61731"
         y="468.18829">70</tspan></text>
    <text
       xml:space="preserve"
       style="font-size:48px;font-style:normal;font-variant:normal;font-weight:normal;font-stretch:normal;text-align:center;line-height:100%;writing-mode:lr-tb;text-anchor:middle;fill:#000000;fill-opacity:1;stroke:none;stroke-width:1px;stroke-linecap:butt;stroke-linejoin:miter;stroke-opacity:1;font-family:Tahoma"
       x="417.33398"
       y="180.44948"
       id="text2346"
       sodipodi:linespacing="100%"><tspan
         sodipodi:role="line"
         id="tspan2350"
         x="417.33398"
         y="180.44948">20</tspan></text>
    <text
       xml:space="preserve"
       style="font-size:40px;font-style:normal;font-variant:normal;font-weight:normal;font-stretch:normal;text-align:center;line-height:100%;writing-mode:lr-tb;text-anchor:middle;fill:#000000;fill-opacity:1;stroke:none;stroke-width:1px;stroke-linecap:butt;stroke-linejoin:miter;stroke-opacity:1;font-family:Tahoma"
       x="545.84503"
       y="175.73174"
       id="text2352"
       sodipodi:linespacing="100%"><tspan
         sodipodi:role="line"
         id="tspan2356"
         x="545.84503"
         y="175.73174">10</tspan><tspan
         sodipodi:role="line"
         id="tspan2358"
         x="545.84503"
         y="215.73174">20</tspan></text>
    <text
       xml:space="preserve"
       style="font-size:59.89639282px;font-style:normal;font-variant:normal;font-weight:normal;font-stretch:normal;text-align:center;line-height:100%;writing-mode:lr-tb;text-anchor:middle;fill:#000000;fill-opacity:1;stroke:none;stroke-width:1px;stroke-linecap:butt;stroke-linejoin:miter;stroke-opacity:1;font-family:Tahoma"
       x="640.42981"
       y="162.8638"
       id="text2360"
       sodipodi:linespacing="100%"
       transform="scale(0.8013839,1.2478414)"><tspan
         sodipodi:role="line"
         id="tspan2364"
         x="640.42981"
         y="162.8638">{</tspan></text>
    <text
       xml:space="preserve"
       style="font-size:40px;font-style:normal;font-variant:normal;font-weight:normal;font-stretch:normal;text-align:center;line-height:100%;writing-mode:lr-tb;text-anchor:middle;fill:#000000;fill-opacity:1;stroke:none;stroke-width:1px;stroke-linecap:butt;stroke-linejoin:miter;stroke-opacity:1;font-family:Tahoma"
       x="323.49887"
       y="233.36905"
       id="text2366"
       sodipodi:linespacing="100%"><tspan
         sodipodi:role="line"
         id="tspan2372"
         x="323.49887"
         y="233.36905">11</tspan><tspan
         sodipodi:role="line"
         id="tspan2374"
         x="323.49887"
         y="273.36905">20</tspan></text>
    <text
       xml:space="preserve"
       style="font-size:40px;font-style:normal;font-variant:normal;font-weight:normal;font-stretch:normal;text-align:center;line-height:100%;writing-mode:lr;text-anchor:middle;fill:#000000;fill-opacity:1;stroke:none;stroke-width:1px;stroke-linecap:butt;stroke-linejoin:miter;stroke-opacity:1;font-family:Tahoma"
       x="458.62482"
       y="310.08575"
       id="text2388"
       sodipodi:linespacing="100%"><tspan
         sodipodi:role="line"
         id="tspan2394"
         x="458.62482"
         y="310.08575">11</tspan><tspan
         sodipodi:role="line"
         id="tspan2396"
         x="458.62482"
         y="350.08575">20</tspan></text>
  </g>
</svg>
